<?xml version="1.0" encoding="UTF-8"?>
<svg width="298px" height="231px" viewBox="0 0 298 231" version="1.1" xmlns="http://www.w3.org/2000/svg" xmlns:xlink="http://www.w3.org/1999/xlink">
    <!-- Generator: Sketch 51.2 (57519) - http://www.bohemiancoding.com/sketch -->
    <title>Group 4</title>
    <desc>Created with Sketch.</desc>
    <defs>
        <linearGradient x1="50%" y1="0%" x2="50%" y2="100%" id="linearGradient-1">
            <stop stop-color="#D6E0FF" offset="0%"></stop>
            <stop stop-color="#FFFFFF" offset="100%"></stop>
        </linearGradient>
        <linearGradient x1="50%" y1="0%" x2="50%" y2="100%" id="linearGradient-2">
            <stop stop-color="#FDDA9F" offset="0%"></stop>
            <stop stop-color="#FFFFFF" offset="100%"></stop>
        </linearGradient>
        <linearGradient x1="50%" y1="0%" x2="50%" y2="100%" id="linearGradient-3">
            <stop stop-color="#BADFFB" offset="0%"></stop>
            <stop stop-color="#95CBF9" offset="100%"></stop>
        </linearGradient>
        <linearGradient x1="50%" y1="0%" x2="50%" y2="100%" id="linearGradient-4">
            <stop stop-color="#3B79E9" offset="0%"></stop>
            <stop stop-color="#62E4EC" offset="100%"></stop>
        </linearGradient>
        <linearGradient x1="50%" y1="0%" x2="50%" y2="100%" id="linearGradient-5">
            <stop stop-color="#2F4590" offset="0%"></stop>
            <stop stop-color="#2B418D" offset="100%"></stop>
        </linearGradient>
        <linearGradient x1="50%" y1="0%" x2="50%" y2="100%" id="linearGradient-6">
            <stop stop-color="#2E4BA7" offset="0%"></stop>
            <stop stop-color="#274397" offset="100%"></stop>
        </linearGradient>
        <linearGradient x1="50%" y1="0%" x2="50%" y2="100%" id="linearGradient-7">
            <stop stop-color="#FE9204" offset="0%"></stop>
            <stop stop-color="#FD6310" offset="100%"></stop>
        </linearGradient>
        <linearGradient x1="57.0662323%" y1="0%" x2="50%" y2="100%" id="linearGradient-8">
            <stop stop-color="#FEAD07" offset="0%"></stop>
            <stop stop-color="#FD6310" offset="100%"></stop>
        </linearGradient>
        <linearGradient x1="50%" y1="0%" x2="50%" y2="100%" id="linearGradient-9">
            <stop stop-color="#25E3CC" offset="0%"></stop>
            <stop stop-color="#10C29D" offset="100%"></stop>
        </linearGradient>
    </defs>
    <g id="微海集团" stroke="none" stroke-width="1" fill="none" fill-rule="evenodd">
        <g id="iPhone-X" transform="translate(-39.000000, -655.000000)">
            <g id="Group-4" transform="translate(39.000000, 655.000000)">
                <g id="Group-20" transform="translate(26.739550, 5.199357)">
                    <g id="Group-19" transform="translate(5.942122, 0.000000)">
                        <path d="M0.294494825,74.9482076 C12.1787392,50.1893652 25.7163133,37.809944 40.9072171,37.809944 C63.6935729,37.809944 67.3798357,60.7529768 91.48489,24.1964492 C115.589944,-12.3600784 130.12029,8.10368519 154.876714,33.4897194 C179.633139,58.8757536 231.948767,36.1300178 241.664194,71.3083677 C241.483339,71.881883 161.026772,73.095163 0.294494825,74.9482076 Z" id="Path-3" fill="url(#linearGradient-1)"></path>
                        <circle id="Oval-2" fill="url(#linearGradient-2)" cx="177.5209" cy="13.3697749" r="13.3697749"></circle>
                        <path d="M46.7942122,74.6014871 C53.5564711,55.4201542 67.4987942,49.0263766 88.6211817,55.4201542 C120.304763,65.0108207 113.641636,33.4244373 138.575048,33.4244373 C163.508459,33.4244373 168.149292,74.6014871 186.452943,74.6014871 C186.509037,74.7272156 139.956127,74.7272156 46.7942122,74.6014871 Z" id="Path-4" fill="url(#linearGradient-1)"></path>
                    </g>
                    <g id="Group-14" transform="translate(69.077170, 86.903537)">
                        <path d="M2.96453288,12.8406272 C16.1505508,7.31598139 25.000628,3.673559 29.5147646,1.91336005 C36.2859695,-0.726938384 39.3034535,-0.547049919 47.2417573,1.91336005 C55.1800612,4.37377002 88.4427439,12.5514416 95.4032669,14.3815166 C102.36379,16.2115916 109.809577,18.1018712 109.809577,34.0096692 C109.809577,49.9174673 109.809577,67.7293267 109.809577,73.5706243 C109.809577,79.4119219 112.321487,89.5734441 103.862377,93.0167124 C98.2229703,95.3122246 87.8322354,98.8593835 72.6901722,103.658189 L64.7982912,100.917298 L38.7888129,111.037243 L2.96453288,12.8406272 Z" id="Path-14" fill="url(#linearGradient-3)"></path>
                        <path d="M0.000615392966,18.253915 L0.000615392966,71.5349923 C-0.0520938615,80.596632 3.28116202,86.0576009 10.000383,87.917899 C16.719604,89.7781972 22.7139519,91.3640688 27.9834266,92.6755137 L38.802122,110.940721 L50.1902224,98.516086 C57.7189415,100.656855 63.5570959,102.206943 67.7046856,103.166348 C73.9260701,104.605456 79.229153,104.300806 79.229153,87.917899 C79.229153,71.5349923 79.229153,54.0335856 79.229153,46.9664351 C79.229153,39.8992847 81.8368104,28.6787417 61.9439025,24.7654422 C42.0509947,20.8521428 28.0182438,16.7705606 14.5128271,12.9965296 C5.50921605,10.4805089 0.671812137,12.2329708 0.000615392966,18.253915 Z" id="Path-6" fill="url(#linearGradient-4)"></path>
                    </g>
                    <g id="Group-18" transform="translate(76.504823, 20.054662)">
                        <path d="M50.5080386,41.2625196 C48.8510113,50.3699987 46.8611566,56.8204254 44.5384744,60.6137998 C42.2157922,64.4071742 35.3319252,69.9725428 23.8868732,77.3099057 L18.7954584,82.1427454 C17.3110828,79.181775 18.0310016,76.7205825 20.9552147,74.7591676 C25.3415344,71.8170454 29.5099266,69.3413646 32.7297404,64.9775822 C35.9495542,60.6137998 39.6066316,58.8649465 41.0918791,48.3452648 C42.0820442,41.3321437 43.7557732,37.844163 46.1130662,37.8813227 L50.5080386,41.2625196 Z" id="Path-22" fill="#FFC3C7"></path>
                        <path d="M10.9362129,134.023072 C10.4746442,136.839874 9.78265392,138.809942 8.86024197,139.933278 C7.47662404,141.618282 -0.705036995,149.935947 0.0489713071,150.797671 C0.802979609,151.659395 4.40328765,153.590657 9.50290802,147.217673 C11.9513496,144.301739 16.6045129,146.385518 16.1232387,142.890472 C15.6419645,139.395426 15.1178943,137.856219 16.9548602,134.023072 C18.1795041,131.46764 16.1732883,131.46764 10.9362129,134.023072 Z" id="Path-17" fill="#FCC0C5"></path>
                        <path d="M35.6973523,128.248507 C37.408227,131.603282 38.5747215,134.29641 39.1968357,136.327893 C40.1300072,139.375116 39.4586895,148.318039 41.4389133,147.292747 C43.4191372,146.267456 45.6786233,143.42442 45.6786233,136.327893 C45.6786233,129.231365 47.1804744,129.094998 41.4389133,126.716554 C37.611206,125.130924 35.6973523,125.130924 35.6973523,126.716554 L35.6973523,128.248507 Z" id="Path-18" fill="#FCC0C5"></path>
                        <path d="M34.2012943,128.50347 C37.5065031,128.743321 39.9490209,128.065354 41.5288478,126.46957 C41.6079117,126.180152 35.3335762,103.966828 28.3186514,91.3586779 C28.3781307,91.3494901 42.4500509,86.6733571 70.5344121,77.3302791 L44.5760714,69.8199357 C24.2670506,75.8457157 14.1125402,81.8345025 14.1125402,87.7862961 C14.1125402,93.7380897 20.8087916,107.310481 34.2012943,128.50347 Z" id="Path-16" fill="url(#linearGradient-5)"></path>
                        <path d="M14.836321,122.700704 C12.8212801,126.504475 7.27230122,134.505884 12.7436669,135.822407 C16.391244,136.700088 18.5450699,136.504 19.2051445,135.234143 C28.6737092,122.302483 34.3629237,111.838971 36.2727879,103.843605 C36.254654,103.783401 76.7368121,96.1519229 76.7368121,77.1671617 C76.7368121,58.1824005 43.8520402,80.4552037 30.9704304,93.7437386 C25.0812592,99.3434925 16.851362,118.896933 14.836321,122.700704 Z" id="Path-15" fill="url(#linearGradient-6)"></path>
                        <g id="Group-17" transform="translate(45.308682, 6.684887)">
                            <path d="M6.73656913,21.2480555 L8.86132027,21.2480555 C8.17078068,20.0215982 8.00672918,19.0344482 8.36916575,18.2866054 C8.32908979,18.2904135 2.76088899,14.871626 2.47926924,9.06315078 C2.29152275,5.19083397 2.61841684,2.16978371 3.45995152,0 L16.0508747,0.836880307 L19.5436486,9.81987917 L16.8797761,15.7448648 C17.397439,19.8689408 19.3772397,22.5055218 22.8191781,23.6546077 C26.2611166,24.8036937 22.8625703,27.415401 12.6235392,31.4897296 L0,27.6761667 L5.89841944,21.5797249 L6.73656913,21.2480555 Z" id="Path-25" fill="#FEBFC2"></path>
                            <g id="Group-16" transform="translate(4.456592, 3.713826)">
                                <path d="M4.3893148,9.61514724 C5.31499086,10.2005101 6.27427511,9.91218081 7.26716756,8.75015936" id="Path-26" stroke="#FF6434" stroke-linecap="round"></path>
                                <path d="M4.45532227,4.91302235 C4.72503407,5.76918506 4.72503407,6.56502226 4.45532227,7.30053397" id="Path-27" stroke="#FF6434" stroke-linecap="round"></path>
                                <path d="M7.42765273,2.81769348 C7.93821319,3.73055491 8.50974894,4.14163571 9.14226,4.0509359 C9.77477105,3.96023609 10.4174371,3.35268939 11.0702581,2.22829582 C10.0607429,2.92306666 9.39339965,3.27045208 9.06822828,3.27045208 C8.74305691,3.27045208 8.19619839,3.11953255 7.42765273,2.81769348 Z" id="Path-28" fill="#392435"></path>
                                <path d="M0,3.56045876 C0.510560456,4.47332018 1.08209621,4.88440098 1.71460726,4.79370117 C2.34711832,4.70300136 2.98978436,4.09545467 3.6426054,2.97106109 C2.6330902,3.66583193 1.96574691,4.01321735 1.64057554,4.01321735 C1.31540417,4.01321735 0.76854566,3.86229782 0,3.56045876 Z" id="Path-28-Copy" fill="#392435"></path>
                                <path d="M0,2.48149065 C0.76996615,1.59619278 1.63298952,1.30109349 2.58907011,1.59619278" id="Path-29" stroke="#392435" stroke-linecap="round"></path>
                                <path d="M7.42765273,0.995960101 C8.19761888,0.110662233 9.06064225,-0.184437056 10.0167228,0.110662233" id="Path-29-Copy" stroke="#392435" stroke-linecap="round"></path>
                            </g>
                        </g>
                        <path d="M37.3576697,42.7933908 C40.0620413,45.366231 42.9824483,46.6526511 46.1188908,46.6526511 C49.2553332,46.6526511 51.5368218,40.355346 52.9633567,27.7607356 C47.8749794,26.721783 44.0019372,28.5905437 41.3442302,33.3670176 C38.6865232,38.1434916 37.3576697,41.2856159 37.3576697,42.7933908 Z" id="Path-20" fill="url(#linearGradient-7)"></path>
                        <path d="M44.0425572,69.7558914 C59.6447383,79.0665701 70.5595434,81.0348256 76.7869726,75.6606577 C81.3628854,71.8873521 76.8660364,33.8808364 73.9417608,32.5701168 C71.9922438,31.6963038 70.3725223,31.1868616 69.0825962,31.0417902 C64.2011873,34.6760692 60.1995153,36.1597863 57.07758,35.4929417 C52.394677,34.4926748 52.9343424,29.4590619 52.9343424,28.2252301 C52.818648,28.1940398 43.8873308,33.0325317 45.7783358,45.3639585 C47.2182894,54.7540356 49.0950637,58.8538469 48.6284162,62.1701347 C48.1749657,65.3926369 46.646346,67.9212225 44.0425572,69.7558914 Z" id="Path-19" fill="url(#linearGradient-7)"></path>
                        <g id="Group-15" transform="translate(43.823151, 52.736334)">
                            <path d="M2.74340248,0.461763233 C4.88701464,1.11427729 5.47939275,1.38898922 6.72662788,1.81423627 C7.97386301,2.23948331 8.67694593,2.33495889 9.14534247,4.97840228 C9.613739,7.62184568 10.3160409,14.5105354 10.3160409,15.9498931 C10.3160409,17.3892509 10.0204376,17.2186054 9.14534247,17.2186054 C8.61766623,17.2186054 6.71624622,16.5338899 3.44108243,15.1644588 L3.4410832,15.164457 C2.77258641,14.8849411 2.30755291,14.265718 2.22548027,13.5458005 C1.62545656,8.28256547 1.23240288,5.03360455 1.04631924,3.79891771 C0.747201486,1.81423627 0.599790321,-0.190750825 2.74340248,0.461763233 Z" id="Path-24" fill="#36437E"></path>
                            <path d="M2.20381503,1.05430598 C4.19473787,1.66034151 4.74492093,1.91548574 5.9033156,2.31044247 C7.06171027,2.7053992 7.71471265,2.79407406 8.14974534,5.24922519 C8.58477803,7.70437632 9.23705505,14.1023852 9.23705505,15.4392176 C9.23705505,16.77605 8.96250754,16.6175596 8.14974534,16.6175596 C7.66386212,16.6175596 5.92389599,15.9924867 2.92984693,14.7423408 L2.92984105,14.7423549 C2.26090436,14.4630447 1.79546803,13.8436363 1.71332354,13.1233983 C1.16136676,8.28387443 0.799463877,5.2939934 0.627614895,4.15375521 C0.349803274,2.31044247 0.212892195,0.448270448 2.20381503,1.05430598 Z" id="Path-24" fill="#584FD3"></path>
                        </g>
                        <path d="M77.6296701,44.5497772 C78.3540596,50.3473116 78.7162544,54.5236133 78.7162544,57.0786824 C78.7162544,60.9112859 79.7154333,68.4555397 77.2945553,69.0713676 C74.8736772,69.6871954 62.4816832,67.3548109 58.5714665,67.0021062 C54.6612498,66.6494015 54.1339155,67.3548109 52.4574347,67.0021062 C50.780954,66.6494015 46.0514469,63.7840611 46.0514469,62.4396125 C46.0514469,61.0951638 53.7935418,63.5702623 54.8322526,61.8268674 C55.8709634,60.0834725 52.8835818,58.8153677 52.8835818,58.1480395 C52.8835818,57.4807113 53.5130101,57.0752369 56.2755311,59.2177593 C59.0380522,61.3602817 58.4806155,63.5425174 60.1460346,63.7759009 C61.8114536,64.0092844 71.9833121,65.1121893 71.9833121,63.7759009 C71.9833121,62.885042 71.2435087,56.990612 69.7639019,46.0926109 L71.9833121,41.5948553 L77.6296701,44.5497772 Z" id="Path-23" fill="#FFC3C7"></path>
                        <path d="M69.5232504,47.9458682 C73.8717639,48.1463085 76.7268888,47.324842 78.0886252,45.4814688 C78.6628788,44.7041055 78.4550641,33.7812831 74.2453226,32.3638457 C70.0355811,30.9464083 67.8110459,33.0328969 67.8110459,39.2571828 C67.8110459,43.4067068 68.3817808,46.3029353 69.5232504,47.9458682 Z" id="Path-21" fill="url(#linearGradient-8)"></path>
                        <path d="M49.4325918,7.8485625 C51.2943407,9.97917695 53.7514865,11.4394409 56.8040294,12.2293544 C61.3828436,13.4142246 64.4500145,15.6138688 60.6270219,22.2944041 C60.669818,22.4166267 62.2423913,30.0934395 70.4991268,31.4357121 C78.7558622,32.7779847 79.2795698,36.6267274 79.2795698,39.7642578 C79.2977037,39.6666974 82.8414339,32.3790385 78.0159984,26.2515876 C73.1905629,20.1241368 73.7625066,22.0688182 72.1308167,15.6240238 C70.4991268,9.17922939 66.524172,-4.08609416 52.5585165,1.22786911 C52.5128191,1.3370353 43.1092946,0.580488245 44.3594469,12.8129038 C45.6095992,25.0453194 51.0806022,28.7968644 55.0359724,28.7968644 C55.2015955,28.7501997 55.2015955,27.1831875 55.0359724,24.0958275 C50.9372234,22.8752939 48.8878489,20.0513594 48.8878489,15.6240238 C48.8878489,11.1966882 49.0694299,8.60486777 49.4325918,7.8485625 Z" id="Path-30" fill="#32243D"></path>
                    </g>
                    <path d="M197.575563,170.507021 C197.575563,174.400736 200.770034,181.202406 212.425065,180.34177 C224.080097,179.481134 223.976371,173.593777 221.838019,170.507021 C219.699668,167.420266 218.222116,163.829387 222.309139,160.721234 C226.396161,157.61308 225.709248,150.658723 221.15292,147.474407 C216.596592,144.290091 218.085749,140.741646 219.007315,137.641471 C219.928881,134.541297 220.191097,130.610226 217.715817,130.067659 C215.240537,129.525092 214.924645,131.670335 212.425065,135.019307 C209.925486,138.368279 204.573804,139.299637 204.573804,143.387022 C204.573804,147.474407 207.574242,149.456807 207.574242,151.667331 C207.574242,153.258612 204.400836,156.5628 201.900139,159.981268 C200.926999,161.311559 197.575563,166.613306 197.575563,170.507021 Z" id="Path-31" fill="url(#linearGradient-9)"></path>
                    <path d="M24.5703165,161.650088 C26.1533534,167.410801 30.8701304,172.390452 43.5670358,172.390452 C60.6339539,172.390452 61.2918524,164.299824 55.8661842,157.162313 C50.440516,150.024803 62.0810405,145.819185 62.0810405,137.901191 C62.0810405,129.983197 51.7019113,127.545274 51.7019113,121.199128 C51.7019113,114.852982 59.3203329,103.987138 47.9329578,103.987138 C47.8379361,104.037913 45.3666458,114.138505 41.4083742,116.160075 C37.4501026,118.181644 33.2074912,119.303045 33.2074912,124.544473 C33.2074912,129.7859 38.5294334,130.23816 37.5799415,134.213478 C37.0316347,136.50912 32.8523298,140.176032 29.2373165,143.762261 C26.5922838,146.386232 22.7006279,154.846243 24.5703165,161.650088 Z" id="Path-32" fill="url(#linearGradient-9)"></path>
                    <path d="M1.33683242,162.74514 C0.634324445,166.185869 0.934259445,169.031806 7.43127952,168.104438 C13.9282996,167.177069 15.7993572,162.508673 15.7993572,158.463359 C15.7993572,154.418045 9.7959424,150.884469 9.7959424,147.825277 C9.7959424,144.766086 14.3355874,142.08154 14.3355874,138.05436 C14.3355874,134.027179 7.43127952,129.81866 7.43127952,128.082518 C7.43127952,126.346377 6.58152413,122.083093 2.51082226,125.082806 C-1.55987961,128.082518 5.31396327,132.264925 5.31396327,136.140144 C5.31396327,140.015362 8.65111425e-17,139.913086 0,143.869182 C0,147.825277 4.39783775,149.206719 4.39783775,152.084935 C4.39783775,154.96315 2.0393404,159.30441 1.33683242,162.74514 Z" id="Path-33" fill="url(#linearGradient-9)"></path>
                </g>
                <g id="Group-13">
                    <g id="Group-11">
                        <rect id="Rectangle" fill="#3B79E9" x="0" y="0" width="74.2765273" height="37.1382637" rx="18.5691318"></rect>
                        <g id="钻石" transform="translate(12.627010, 10.398714)" fill="#FFFFFF" fill-rule="nonzero">
                            <path d="M16.4354154,6.09256839 L5.92040909,6.09256839 L10.1752468,0.01661321 L12.1805778,0.01661321 L16.4354154,6.09318655 L16.4354154,6.09256839 Z M17.944359,6.09256838 L13.6901395,0.0166131939 L15.775214,0.0166132058 C16.125157,0.0165646023 16.4587289,0.164818739 16.6931907,0.42460287 L21.8085157,6.09318654 L17.9449772,6.09318654 L17.944359,6.09256838 Z M12.7474362,17.4519897 L18.591579,7.32890068 L22.2696676,7.32890068 C22.226396,7.56071299 22.1175987,7.78201646 21.9420396,7.96313916 L12.7474362,17.4519897 Z M17.1642333,7.32890068 L11.1946027,17.6683478 L5.22497216,7.32890068 L17.1642333,7.32890068 Z M9.79136559,17.7116195 L0.345168528,7.96313916 C0.175730264,7.78871391 0.0617295689,7.56802578 0.0175404551,7.32890068 L3.79762653,7.32890068 L9.79136559,17.7116195 Z M4.41084733,6.09256838 L0.479310575,6.09256838 L5.59401736,0.42460287 C5.82847922,0.164818739 6.16205103,0.0165646023 6.5119941,0.0166132058 L8.66630317,0.0166131939 L4.41146552,6.09318654 L4.41084733,6.09256838 Z" id="Shape"></path>
                        </g>
                        <path d="M37.8810289,16.2517042 L41.2205016,16.2517042 C41.3155756,15.8476399 41.4225338,15.4554598 41.5176077,15.0513955 L38.6891576,15.0513955 L38.6891576,13.9936977 L41.7552926,13.9936977 C41.8503666,13.5420965 41.9335563,13.0786109 42.0286302,12.6270096 L43.1932862,12.7220836 C43.1100965,13.1618006 43.0269068,13.5896334 42.9556013,13.9936977 L47.9232154,13.9936977 L47.9232154,15.0513955 L42.7298006,15.0513955 C42.6347267,15.4673441 42.5396527,15.8714084 42.4445788,16.2517042 L48.6243859,16.2517042 L48.6243859,17.3331704 L42.1474727,17.3331704 C42.0048617,17.8085402 41.874135,18.2482572 41.7315241,18.6642058 L47.2339293,18.6642058 L47.2339293,19.6387138 C46.687254,20.4468424 45.8434727,21.2549711 44.7025852,22.0749839 C45.3443344,22.3126688 45.9623151,22.5622379 46.5565273,22.8236913 L45.9385466,23.7981994 C44.1677942,22.9663023 42.3495048,22.3007846 40.4955627,21.8254148 L41.0897749,20.9459807 C41.921672,21.1598971 42.7179164,21.3856977 43.478508,21.6471511 C44.4886688,21.0054019 45.2849132,20.3636527 45.8672412,19.698135 L40.1152669,19.698135 C40.4004887,18.9375434 40.6619421,18.1531833 40.9115113,17.3331704 L37.8810289,17.3331704 L37.8810289,16.2517042 Z M53.2830096,12.8290418 L54.4120129,12.8290418 L54.4120129,22.1700579 L55.8381222,22.1700579 L55.8381222,12.8290418 L56.9671254,12.8290418 L56.9671254,22.1700579 L60.4373248,22.1700579 L60.4373248,23.2752926 L49.8365788,23.2752926 L49.8365788,22.1700579 L53.2830096,22.1700579 L53.2830096,12.8290418 Z M59.1894791,15.0395113 L60.1877556,15.3247331 C59.7361543,17.3688232 59.1538264,19.1514598 58.4407717,20.6845273 L57.4306109,20.328 C58.0961286,18.9494277 58.6903408,17.1786752 59.1894791,15.0395113 Z M51.0368875,15.0157428 C51.6429839,16.6082315 52.1777749,18.4265209 52.6531447,20.4706109 L51.6192154,20.7320643 C51.2151511,18.8662379 50.6922444,17.0598328 50.0742637,15.3247331 L51.0368875,15.0157428 Z" id="专业" fill="#FFFFFF"></path>
                    </g>
                    <g id="Group-10" transform="translate(223.572347, 61.649518)">
                        <rect id="Rectangle" fill="#00C49D" x="0" y="0" width="74.2765273" height="37.1382637" rx="18.5691318"></rect>
                        <g id="Group-9" transform="translate(13.369775, 6.684887)" fill="#FFFFFF" fill-rule="nonzero">
                            <g id="点赞">
                                <path d="M16.8071107,21.1155535 L5.57932935,21.1155535 L5.57932935,20.080735 C5.57932935,18.1663206 5.60519982,9.26688103 5.60519982,9.26688103 C5.60519982,8.30967386 5.88977492,7.37833716 6.4071842,6.55048232 L9.53751034,1.71270556 C10.0807901,0.884850712 10.7792926,0.00525493799 12.4091318,0.00525493799 C13.6509141,0.00525493799 14.3494166,0.600275609 14.7116031,1.09181442 C15.7981626,2.6181718 15.3066238,5.25695912 14.6598622,7.27485531 L19.7563436,7.27485531 C20.5324575,7.27485531 21.2568305,7.61117134 21.7483693,8.20619201 C22.1881672,8.74947175 22.3692605,9.44797428 22.2399081,10.1206063 L20.7652917,17.2867249 C20.2478824,19.5891961 18.6697841,21.1155535 16.8071107,21.1155535 Z M7.64896647,19.0459164 L16.8071107,19.0459164 C17.660836,19.0459164 18.4628204,18.1404502 18.7473955,16.846927 L20.1961415,9.68080845 C20.1961415,9.65493799 20.2220119,9.5773266 20.1444006,9.4997152 C20.0667892,9.39623335 19.9115664,9.34449242 19.7563436,9.34449242 L14.4528985,9.34449242 C13.754396,9.34449242 13.1076344,8.98230593 12.7454479,8.38728525 C12.4350023,7.86987598 12.4091318,7.22311438 12.6678365,6.67983463 C13.3145981,4.66193845 13.4698209,2.9027469 13.030023,2.30772623 C12.978282,2.23011484 12.8489297,2.07489205 12.4091318,2.07489205 C11.8658521,2.07489205 11.6847588,2.17837391 11.2708314,2.85100597 L8.14050528,7.68878273 C7.83005972,8.18032154 7.67483693,8.72360129 7.67483693,9.26688103 C7.67483693,9.26688103 7.64896647,16.070813 7.64896647,19.0459164 Z" id="Shape"></path>
                                <path d="M7.64896647,21.1155535 L3.22511713,21.1155535 C1.46592559,21.1155535 0.017179605,19.692678 0.017179605,17.907616 L0.017179605,17.7782637 L1.15548002,9.16339917 C1.20722095,8.12858062 2.06094626,7.30072577 3.12163528,7.30072577 L7.64896647,7.30072577 L7.64896647,21.1155535 Z M2.08681672,17.9593569 C2.11268718,18.5543776 2.63009646,19.0459164 3.22511713,19.0459164 L5.57932935,19.0459164 L5.57932935,9.34449242 L3.22511713,9.34449242 L3.22511713,9.37036288 L2.08681672,17.9593569 Z" id="Shape"></path>
                            </g>
                        </g>
                        <path d="M40.4658521,16.8696849 L48.630328,16.8696849 L48.630328,19.0445016 L46.1346367,19.0445016 L46.1346367,19.6030611 L49.4503408,19.6030611 L49.4503408,20.4706109 L46.1346367,20.4706109 L46.1346367,21.0291704 L48.9868553,21.0291704 L48.9868553,21.837299 L46.1346367,21.837299 L46.1346367,22.3958585 L49.8544051,22.3958585 L49.8544051,23.2990611 L46.1346367,23.2990611 L46.1346367,24.2616849 L45.0412862,24.2616849 L45.0412862,19.0445016 L44.0430096,19.0445016 L44.0430096,24.2616849 L42.9496592,24.2616849 L42.9496592,23.2990611 L39.2893119,23.2990611 L39.2893119,22.3958585 L42.9496592,22.3958585 L42.9496592,21.8254148 L39.9904823,21.8254148 L39.9904823,21.0172862 L42.9496592,21.0172862 L42.9496592,20.4706109 L39.633955,20.4706109 L39.633955,19.6030611 L42.9496592,19.6030611 L42.9496592,19.0445016 L40.4658521,19.0445016 L40.4658521,16.8696849 Z M47.5250932,18.2482572 L47.5250932,17.654045 L41.5710868,17.654045 L41.5710868,18.2482572 L47.5250932,18.2482572 Z M41.3928232,14.8612476 C41.1670225,15.0870482 40.9293376,15.2890804 40.6797685,15.4792283 L44.1024309,15.4792283 L44.1024309,14.8612476 L41.3928232,14.8612476 Z M40.2281672,15.4792283 L39.7646817,14.9206688 C40.4183151,14.5166045 40.9768746,13.9818135 41.4284759,13.2925273 L42.4267524,13.518328 C42.3197942,13.6847074 42.212836,13.8510868 42.1058778,14.005582 L44.1024309,14.005582 L44.1024309,13.2331061 L45.1720129,13.2331061 L45.1720129,14.005582 L48.8561286,14.005582 L48.8561286,14.8612476 L45.1720129,14.8612476 L45.1720129,15.4792283 L49.8544051,15.4792283 L49.8544051,16.3348939 L39.2774277,16.3348939 L39.2774277,15.4792283 L40.2281672,15.4792283 Z M56.7353826,15.4792283 L54.7388296,15.4792283 L54.7388296,14.5166045 L56.4026238,14.5166045 C56.2362444,14.1838457 56.0342122,13.8629711 55.8084116,13.565865 L56.7710354,13.2212219 C57.0087203,13.5896334 57.2345209,14.0174662 57.4484373,14.5166045 L58.9696206,14.5166045 C59.2191897,14.0887717 59.4331061,13.6371704 59.623254,13.1855691 L60.5858778,13.5302122 C60.4194984,13.8867395 60.253119,14.2194984 60.0629711,14.5166045 L61.5841543,14.5166045 L61.5841543,15.4792283 L59.623254,15.4792283 L59.623254,17.6659293 L61.8812605,17.6659293 L61.8812605,18.6404373 L54.417955,18.6404373 L54.417955,17.6659293 L56.7353826,17.6659293 L56.7353826,15.4792283 Z M58.6368617,15.4792283 L57.7217749,15.4792283 L57.7217749,17.6659293 L58.6368617,17.6659293 L58.6368617,15.4792283 Z M60.7997942,15.6456077 L61.5960386,16.0140193 C61.3702379,16.5131576 61.0850161,17.0004116 60.740373,17.4757814 L59.9560129,17.0598328 C60.3125402,16.584463 60.5858778,16.1090932 60.7997942,15.6456077 Z M61.0850161,19.305955 L61.0850161,24.2498006 L60.0273183,24.2498006 L60.0273183,23.8100836 L56.4026238,23.8100836 L56.4026238,24.2498006 L55.3330418,24.2498006 L55.3330418,19.305955 L61.0850161,19.305955 Z M56.4026238,22.9187653 L60.0273183,22.9187653 L60.0273183,22.0155627 L56.4026238,22.0155627 L56.4026238,22.9187653 Z M56.4026238,21.1598971 L60.0273183,21.1598971 L60.0273183,20.2091576 L56.4026238,20.2091576 L56.4026238,21.1598971 Z M55.6301479,15.7050289 C55.9391383,16.1566302 56.2005916,16.632 56.4263923,17.1430225 L55.6420322,17.4757814 C55.392463,16.9291061 55.1072412,16.4418521 54.7982508,16.0377878 L55.6301479,15.7050289 Z M52.5640129,13.3638328 C53.2770675,13.958045 53.8950482,14.540373 54.3941865,15.122701 L53.6098264,15.9070611 C53.1701093,15.3603859 52.5521286,14.7661736 51.7677685,14.1363087 L52.5640129,13.3638328 Z M50.9596399,16.8221479 L53.5622894,16.8221479 L53.5622894,21.837299 C53.8712797,21.5520772 54.2040386,21.2312026 54.5486817,20.8746752 L54.8457878,22.0630997 C54.1446174,22.7523859 53.4077942,23.3584823 52.6234341,23.8932733 L52.1956013,22.8831125 C52.3857492,22.7167331 52.4808232,22.5265852 52.4808232,22.3007846 L52.4808232,17.9036141 L50.9596399,17.9036141 L50.9596399,16.8221479 Z" id="靠谱" fill="#FFFFFF"></path>
                    </g>
                    <g id="Group-12" transform="translate(75.019293, 193.861736)">
                        <rect id="Rectangle-Copy-2" fill="#FFA522" x="0" y="0" width="74.2765273" height="37.1382637" rx="18.5691318"></rect>
                        <g id="Group-8" transform="translate(11.884244, 8.170418)" fill="#FFFFFF" fill-rule="nonzero">
                            <g id="爱心">
                                <path d="M13.6728232,0.180046302 C13.1618006,0.298888755 12.840926,0.807534405 12.9597685,1.32093376 C13.0762341,1.83195628 13.5872566,2.15045401 14.1006559,2.03398842 C15.7074058,1.6632 17.3616926,2.13856978 18.5263486,3.30322572 C20.9697492,5.74662638 20.9697492,9.72071768 18.5263486,12.1641183 L11.1509865,18.5319936 L3.7589865,12.1617415 C1.31558585,9.71834082 1.31558585,5.74424951 3.7589865,3.30084888 C5.60817492,1.45166047 8.61964246,1.45166047 10.4688309,3.30084888 L12.1088566,4.95038199 C12.2966277,5.14052991 13.9485376,6.76629454 15.6503614,6.76629454 C15.6931447,6.76629454 15.7383048,6.76629454 15.7810881,6.76391768 C16.4988965,6.72826494 17.1287614,6.4002598 17.5970006,5.81793184 C17.7552962,5.62172275 17.8289777,5.3705726 17.8017741,5.11994245 C17.7745705,4.86931229 17.6487196,4.63981957 17.4520129,4.48214276 C17.0429993,4.15368251 16.4452397,4.2185639 16.1162238,4.62713056 C15.9569749,4.82678586 15.8167408,4.86006175 15.688391,4.86481543 C14.9824669,4.90522187 13.8843627,4.03767203 13.4612836,3.61221607 L11.8165042,1.95555241 C9.22573893,-0.637589692 5.009209,-0.637589692 2.41606687,1.95317557 C-0.76891063,5.13815307 -0.76891063,10.3173068 2.41606687,13.5022842 L10.4807151,20.5451846 C10.6661093,20.7305788 10.9085479,20.8232759 11.1533634,20.8232759 C11.3958019,20.8232759 11.6406174,20.7305788 11.8260116,20.5451846 L19.871645,13.5022842 C23.0518688,10.3220604 23.0518688,5.14052988 19.8692682,1.95792925 C18.2387498,0.327410914 15.923699,-0.338106762 13.6728232,0.180046302 Z" id="Shape"></path>
                                <path d="M4.49818649,8.50614792 C3.97290288,8.50614792 3.54744695,8.08069196 3.54744695,7.55540835 C3.54744695,6.16019805 3.94675756,5.08586238 4.73587139,4.35854662 C5.79119229,3.38879228 7.10083603,3.4672283 7.2458238,3.47911255 C7.76873055,3.52189583 8.15853377,3.98300452 8.11575049,4.50591126 C8.07404047,5.02554545 7.62073602,5.41409211 7.100836,5.37583795 C7.06993698,5.37583795 6.45195626,5.35444631 6.00986237,5.77039486 C5.63669711,6.12216848 5.44892603,6.72351126 5.44892605,7.55540835 C5.44892605,8.07831509 5.0234701,8.50614789 4.49818649,8.50614792 Z" id="Shape"></path>
                            </g>
                        </g>
                        <path d="M40.5549839,17.0538907 L48.7194598,17.0538907 L48.7194598,19.2287074 L46.2237685,19.2287074 L46.2237685,19.7872669 L49.5394727,19.7872669 L49.5394727,20.6548167 L46.2237685,20.6548167 L46.2237685,21.2133762 L49.0759871,21.2133762 L49.0759871,22.0215048 L46.2237685,22.0215048 L46.2237685,22.5800643 L49.943537,22.5800643 L49.943537,23.4832669 L46.2237685,23.4832669 L46.2237685,24.4458907 L45.130418,24.4458907 L45.130418,19.2287074 L44.1321415,19.2287074 L44.1321415,24.4458907 L43.038791,24.4458907 L43.038791,23.4832669 L39.3784437,23.4832669 L39.3784437,22.5800643 L43.038791,22.5800643 L43.038791,22.0096206 L40.0796141,22.0096206 L40.0796141,21.201492 L43.038791,21.201492 L43.038791,20.6548167 L39.7230868,20.6548167 L39.7230868,19.7872669 L43.038791,19.7872669 L43.038791,19.2287074 L40.5549839,19.2287074 L40.5549839,17.0538907 Z M47.6142251,18.432463 L47.6142251,17.8382508 L41.6602186,17.8382508 L41.6602186,18.432463 L47.6142251,18.432463 Z M41.481955,15.0454534 C41.2561543,15.271254 41.0184695,15.4732862 40.7689003,15.6634341 L44.1915627,15.6634341 L44.1915627,15.0454534 L41.481955,15.0454534 Z M40.317299,15.6634341 L39.8538135,15.1048746 C40.5074469,14.7008103 41.0660064,14.1660193 41.5176077,13.4767331 L42.5158842,13.7025338 C42.408926,13.8689132 42.3019678,14.0352926 42.1950096,14.1897878 L44.1915627,14.1897878 L44.1915627,13.4173119 L45.2611447,13.4173119 L45.2611447,14.1897878 L48.9452605,14.1897878 L48.9452605,15.0454534 L45.2611447,15.0454534 L45.2611447,15.6634341 L49.943537,15.6634341 L49.943537,16.5190997 L39.3665595,16.5190997 L39.3665595,15.6634341 L40.317299,15.6634341 Z M56.8245145,15.6634341 L54.8279614,15.6634341 L54.8279614,14.7008103 L56.4917556,14.7008103 C56.3253762,14.3680514 56.1233441,14.0471768 55.8975434,13.7500707 L56.8601672,13.4054277 C57.0978521,13.7738392 57.3236527,14.201672 57.5375691,14.7008103 L59.0587524,14.7008103 C59.3083215,14.2729775 59.5222379,13.8213762 59.7123859,13.3697749 L60.6750096,13.714418 C60.5086302,14.0709453 60.3422508,14.4037042 60.1521029,14.7008103 L61.6732862,14.7008103 L61.6732862,15.6634341 L59.7123859,15.6634341 L59.7123859,17.850135 L61.9703923,17.850135 L61.9703923,18.8246431 L54.5070868,18.8246431 L54.5070868,17.850135 L56.8245145,17.850135 L56.8245145,15.6634341 Z M58.7259936,15.6634341 L57.8109068,15.6634341 L57.8109068,17.850135 L58.7259936,17.850135 L58.7259936,15.6634341 Z M60.888926,15.8298135 L61.6851704,16.1982251 C61.4593698,16.6973633 61.1741479,17.1846174 60.8295048,17.6599871 L60.0451447,17.2440386 C60.401672,16.7686688 60.6750096,16.293299 60.888926,15.8298135 Z M61.1741479,19.4901608 L61.1741479,24.4340064 L60.1164502,24.4340064 L60.1164502,23.9942894 L56.4917556,23.9942894 L56.4917556,24.4340064 L55.4221736,24.4340064 L55.4221736,19.4901608 L61.1741479,19.4901608 Z M56.4917556,23.1029711 L60.1164502,23.1029711 L60.1164502,22.1997685 L56.4917556,22.1997685 L56.4917556,23.1029711 Z M56.4917556,21.3441029 L60.1164502,21.3441029 L60.1164502,20.3933633 L56.4917556,20.3933633 L56.4917556,21.3441029 Z M55.7192797,15.8892347 C56.0282701,16.340836 56.2897235,16.8162058 56.5155241,17.3272283 L55.731164,17.6599871 C55.4815949,17.1133119 55.196373,16.6260579 54.8873826,16.2219936 L55.7192797,15.8892347 Z M52.6531447,13.5480386 C53.3661994,14.1422508 53.9841801,14.7245788 54.4833183,15.3069068 L53.6989582,16.0912669 C53.2592412,15.5445916 52.6412605,14.9503794 51.8569003,14.3205145 L52.6531447,13.5480386 Z M51.0487717,17.0063537 L53.6514212,17.0063537 L53.6514212,22.0215048 C53.9604116,21.736283 54.2931704,21.4154084 54.6378135,21.058881 L54.9349196,22.2473055 C54.2337492,22.9365916 53.496926,23.5426881 52.7125659,24.0774791 L52.2847331,23.0673183 C52.474881,22.9009389 52.569955,22.710791 52.569955,22.4849904 L52.569955,18.0878199 L51.0487717,18.0878199 L51.0487717,17.0063537 Z" id="靠谱-copy" fill="#FFFFFF"></path>
                    </g>
                </g>
            </g>
        </g>
    </g>
</svg>