<?xml version="1.0" encoding="UTF-8"?>
<svg width="180px" height="46px" viewBox="0 0 180 46" version="1.1" xmlns="http://www.w3.org/2000/svg" xmlns:xlink="http://www.w3.org/1999/xlink">
    <!-- Generator: Sketch 51.2 (57519) - http://www.bohemiancoding.com/sketch -->
    <title>Group 7</title>
    <desc>Created with Sketch.</desc>
    <defs></defs>
    <g id="微海集团" stroke="none" stroke-width="1" fill="none" fill-rule="evenodd">
        <g id="Desktop-HD" transform="translate(-230.000000, -1144.000000)">
            <g id="Group-7" transform="translate(230.000000, 1144.000000)">
                <rect id="Rectangle-5-Copy-2" fill="#3B79E9" x="0" y="0" width="180" height="46" rx="5"></rect>
                <g id="电话" transform="translate(13.000000, 11.000000)" fill="#FFFFFF" fill-rule="nonzero">
                    <path d="M11.9934523,0.0211320755 C5.36592655,0.0211320755 0.00201469045,5.39230189 0.00201469045,12 C0.00201469045,18.6205786 5.37882057,23.9788679 11.9934523,23.9788679 C18.620978,23.9788679 23.9848898,18.6076981 23.9848898,12 C23.9977838,5.39230189 18.620978,0.0211320755 11.9934523,0.0211320755 Z M16.6610871,17.5128553 C15.8100818,18.3629686 12.6639412,17.5514969 9.54358867,14.4472956 C6.43613012,11.3430943 5.63670094,8.18737107 6.48770619,7.35013836 C7.22266527,6.61594969 8.11235257,5.34077987 9.45333054,7.00236478 C10.7943085,8.66394969 10.1367135,9.1276478 9.37596642,9.88759748 C8.84731165,10.4156981 9.95619727,11.7552704 11.103765,12.9016352 C12.2642267,14.048 13.5923106,15.1557233 14.1209654,14.6276226 C14.8817125,13.867673 15.3458972,13.2107673 17.0092256,14.5503396 C18.6854481,15.8899119 17.3960462,16.7915472 16.6610871,17.5128553 Z" id="Shape"></path>
                </g>
                <rect id="Rectangle-6-Copy" fill="#FFFFFF" opacity="0.100000001" x="50" y="0" width="1" height="46"></rect>
                <text id="17721426831" font-family="PingFangSC-Medium, PingFang SC" font-size="16" font-weight="400" fill="#FFFFFF">
                    <tspan x="65" y="29">17721426831</tspan>
                </text>
            </g>
        </g>
    </g>
</svg>