<?xml version="1.0" encoding="UTF-8"?>
<svg width="106px" height="34px" viewBox="0 0 106 34" version="1.1" xmlns="http://www.w3.org/2000/svg" xmlns:xlink="http://www.w3.org/1999/xlink">
    <!-- Generator: Sketch 51.2 (57519) - http://www.bohemiancoding.com/sketch -->
    <title>Group 6</title>
    <desc>Created with Sketch.</desc>
    <defs>
        <linearGradient x1="6.88360305%" y1="5.49897693%" x2="88.9032273%" y2="97.5574312%" id="linearGradient-1">
            <stop stop-color="#5D97FF" offset="0%"></stop>
            <stop stop-color="#3574E6" offset="100%"></stop>
        </linearGradient>
        <linearGradient x1="-1.11022302e-14%" y1="50%" x2="100%" y2="50%" id="linearGradient-2">
            <stop stop-color="#FFFFFF" stop-opacity="0" offset="0%"></stop>
            <stop stop-color="#FFFFFF" offset="100%"></stop>
        </linearGradient>
        <linearGradient x1="100%" y1="50%" x2="0%" y2="50%" id="linearGradient-3">
            <stop stop-color="#FFFFFF" stop-opacity="0" offset="0%"></stop>
            <stop stop-color="#FFFFFF" offset="100%"></stop>
        </linearGradient>
    </defs>
    <g id="微海集团" stroke="none" stroke-width="1" fill="none" fill-rule="evenodd">
        <g id="Desktop-HD" transform="translate(-230.000000, -13.000000)">
            <g id="Group-6" transform="translate(230.000000, 13.000000)">
                <path d="M42.2424461,1.94579307 L42.2424461,3.83761525 L40.843752,3.83761525 L40.843752,19.2278443 L42.2424461,19.023323 L42.2424461,20.9918406 L40.843752,21.1963619 L40.843752,24.3408772 L38.8601494,24.3408772 L38.8601494,21.4520136 L31.459786,22.4746202 L31.459786,20.5572328 L32.4515873,20.429407 L32.4515873,3.83761525 L31.4343552,3.83761525 L31.4343552,1.94579307 L42.2424461,1.94579307 Z M53.6100146,7.88380087 L53.6100146,14.3193327 L43.0053701,14.3193327 L43.0053701,1.84353242 L47.6014919,1.84353242 C50.9199074,1.84353242 53.6100146,4.54785272 53.6100146,7.88380087 Z M45.0144035,12.3763802 L51.6264121,12.3763802 L51.6264121,7.89386747 C51.6264121,5.62542272 49.7971391,3.78648492 47.5406166,3.78648492 L45.0144035,3.78648492 L45.0144035,12.3763802 Z M34.4606206,20.1481902 L38.8601494,19.5090611 L38.8601494,15.4697651 L34.4606206,15.4697651 L34.4606206,20.1481902 Z M42.2678769,24.3408772 C42.5391401,23.7102666 42.797684,23.0285357 43.0435163,22.295664 C43.2893487,21.5627923 43.5139852,20.8128883 43.7174326,20.0459295 C43.92088,19.2789708 44.1031323,18.524806 44.2641948,17.7834125 C44.4252574,17.042019 44.5481717,16.3560273 44.6329415,15.7254167 L46.7182673,15.7254167 C46.6165435,16.4412449 46.4893908,17.1868881 46.3368052,17.9623686 C46.1842196,18.7378492 46.0146827,19.5047964 45.8281892,20.2632334 C45.6416957,21.0216704 45.4424897,21.7502703 45.2305653,22.449055 C45.0186409,23.1478397 44.8024813,23.7784407 44.5820799,24.3408772 L42.2678769,24.3408772 Z M51.8807201,24.3408772 C51.7789964,23.7954843 51.6560821,23.1521007 51.5119735,22.4107072 C51.3678649,21.6693138 51.2068047,20.9066273 51.0287882,20.122625 C50.8507717,19.3386227 50.6727579,18.5631538 50.4947414,17.7961951 C50.3167249,17.0292363 50.1429495,16.3389837 49.9734099,15.7254167 L51.9570125,15.7254167 C52.126552,16.3560273 52.3088043,17.042019 52.5037747,17.7834125 C52.6987452,18.524806 52.8894743,19.2789708 53.0759678,20.0459295 C53.2624613,20.8128883 53.4362367,21.5670531 53.5972992,22.3084466 C53.7583618,23.0498401 53.8897529,23.7273102 53.9914767,24.3408772 L51.8807201,24.3408772 Z M34.4606206,13.6290732 L38.8601494,13.6290732 L38.8601494,9.61534242 L34.4606206,9.61534242 L34.4606206,13.6290732 Z M34.4606206,7.77465058 L38.8601494,7.77465058 L38.8601494,3.83761525 L34.4606206,3.83761525 L34.4606206,7.77465058 Z M71.6404533,9.10403913 C72.0303942,7.79168746 72.3397992,6.45379056 72.5686776,5.09030831 C72.797556,3.72682605 72.9798082,2.45710224 73.1154398,1.2810988 L74.768442,1.2810988 C74.7345341,1.63901289 74.6921498,2.00118243 74.641288,2.36761829 C74.5904261,2.73405415 74.539565,3.09622369 74.4887032,3.45413778 L79.8546024,3.45413778 L79.8546024,5.19256896 L79.0662475,5.19256896 C78.8797541,7.61274997 78.6212102,9.8283754 78.2906081,11.8395117 C77.960006,13.8506481 77.5319251,15.7424513 77.0063526,17.5149782 C77.3962935,18.6909817 77.820136,19.8371418 78.2778927,20.9534929 C78.7356494,22.069844 79.2273067,23.1989608 79.7528792,24.3408772 L77.7438458,24.3408772 C77.4556286,23.6761796 77.1758926,23.0072311 76.9046294,22.3340118 C76.6333661,21.6607924 76.3705838,20.966279 76.1162745,20.2504508 C75.8450113,20.966279 75.5652752,21.6607924 75.277058,22.3340118 C74.9888408,23.0072311 74.6751974,23.6761796 74.3361184,24.3408772 L72.3016542,24.3408772 C72.9119965,23.1648737 73.4545148,22.0229745 73.9292255,20.9151451 C74.4039362,19.8073158 74.8277787,18.6739382 75.2007656,17.5149782 C74.8108247,16.2367136 74.4505586,14.9073384 74.1199565,13.5268126 C73.7893545,12.1462868 73.4884263,10.6720437 73.2171631,9.10403913 L71.6404533,9.10403913 Z M68.9702191,24.3408772 L68.9702191,17.195613 C68.9702191,15.8612338 67.8941762,14.7795056 66.56681,14.7795056 L65.7913688,14.7795056 L65.7913688,16.4923717 C65.7913688,17.3615916 65.7701767,18.149843 65.7277918,18.8571494 C65.685407,19.5644558 65.6218306,20.2248826 65.5370608,20.8384496 C65.4522911,21.4520166 65.3336152,22.0442704 65.1810296,22.6152286 C65.028444,23.1861868 64.8419533,23.7613972 64.6215519,24.3408772 L62.5107954,24.3408772 C62.8159665,23.7443537 63.0660336,23.1648824 63.261004,22.602446 C63.4559745,22.0400095 63.6085578,21.4562775 63.7187585,20.8512322 C63.8289592,20.246187 63.9052508,19.590021 63.9476357,18.8827145 C63.9900206,18.1754081 64.0112127,17.3871568 64.0112127,16.5179368 L64.0112127,12.9899441 L66.6645798,12.9899441 C68.9211023,12.9899441 70.7503753,14.8288819 70.7503753,17.0973267 L70.7503753,22.5257505 L71.9964846,22.5257505 L71.9964846,24.3408772 L68.9702191,24.3408772 Z M56.7125725,15.0351573 C57.6280859,13.7057621 58.437625,12.3934301 59.1412141,11.098122 C59.8448031,9.80281382 60.4000368,8.62682801 60.8069316,7.57012926 L62.9176882,7.57012926 C62.646425,8.20073981 62.3709274,8.82281925 62.0911871,9.43638627 C61.8114469,10.0499533 61.5189956,10.6549895 61.2138245,11.2515129 L61.2138245,24.3408772 L59.3065143,24.3408772 L59.3065143,14.4471585 L58.8996215,15.0351573 L56.7125725,15.0351573 Z M64.9521524,5.90839357 L66.6814469,5.90839357 L66.6814469,1.2810988 L68.2327258,1.2810988 L68.2327258,5.90839357 L69.9365896,5.90839357 L69.9365896,2.35483571 L71.4624377,2.35483571 L71.4624377,7.49343377 L63.4263042,7.49343377 L63.4263042,2.35483571 L64.9521524,2.35483571 L64.9521524,5.90839357 Z M76.0399821,14.3448979 C76.3451532,12.9984591 76.6036971,11.5796067 76.8156216,10.088298 C77.027546,8.59698925 77.2013214,6.9650959 77.336953,5.19256896 L74.2089643,5.19256896 C74.4632736,6.94805237 74.7387712,8.57142408 75.0354654,10.0627328 C75.3321596,11.5540415 75.6669951,12.9814156 76.0399821,14.3448979 Z M56.8905881,7.77465058 C57.7043778,6.61569066 58.4333869,5.47805222 59.0776371,4.36170112 C59.7218873,3.24535002 60.2474519,2.21849285 60.6543468,1.2810988 L62.7905342,1.2810988 C62.2140998,2.52527636 61.6334356,3.67143644 61.0485242,4.71961342 C60.4636129,5.76779041 59.8151339,6.78612594 59.1030679,7.77465058 L56.8905881,7.77465058 Z M71.3607145,9.35969078 L71.3607145,11.098122 L63.5534583,11.098122 L63.5534583,9.35969078 L71.3607145,9.35969078 Z M82.2959594,12.8365531 C82.7537161,11.9332462 83.1987507,10.9745621 83.6310765,9.96047214 C84.0634023,8.94638221 84.4660527,7.93656831 84.8390396,6.93100015 C85.2120266,5.92543199 85.5511006,4.95822627 85.8562717,4.02935398 C86.1614429,3.10048169 86.4242252,2.26110052 86.6446266,1.51118528 L88.9588296,1.51118528 C88.7384282,2.27814405 88.4756459,3.13030768 88.1704747,4.06770173 C87.8653036,5.00509578 87.5347064,5.95951904 87.1786734,6.93100015 L87.1786734,24.3408772 L85.042486,24.3408772 L85.042486,12.1207285 L84.6864548,12.8365531 L82.2959594,12.8365531 Z M88.8316756,9.30856045 C89.1029388,8.74612402 89.3699596,8.1070013 89.6327458,7.39117311 C89.8955321,6.67534493 90.1455991,5.94674502 90.3829545,5.20535155 C90.6203098,4.46395807 90.8279926,3.74814062 91.0060091,3.05787773 C91.1840256,2.36761484 91.3238937,1.77536112 91.4256174,1.2810988 L93.6126664,1.2810988 C93.5109426,1.87762229 93.3837899,2.48265846 93.2312043,3.09622548 L99.8378894,3.09622548 C102.359885,3.09622548 104.404367,5.15150891 104.404367,7.6868295 C104.404367,7.89057393 104.390874,8.09409236 104.363978,8.29603474 L104.242742,9.20629979 L102.106554,9.20629979 L102.324002,7.83586555 C102.533086,6.5181445 101.639973,5.27952898 100.329177,5.06934035 C100.203973,5.04926358 100.077384,5.03917798 99.950597,5.03917798 L92.6971575,5.03917798 C92.4598021,5.80613675 92.2139735,6.56030156 91.9596642,7.30169503 C91.7053549,8.04308851 91.4425726,8.71203696 91.1713094,9.30856045 L88.8316756,9.30856045 Z M94.9859297,24.3408772 C95.3928245,23.5739184 95.706468,22.7430589 95.9268693,21.8482736 C96.1472707,20.9534884 96.2574698,20.1481938 96.2574698,19.4323656 L96.2574698,7.44230344 L98.4445188,7.44230344 L98.4445188,19.4323656 C98.4445188,20.1652373 98.3809424,20.9747927 98.2537877,21.8610562 C98.1266331,22.7473197 97.9104734,23.5739184 97.6053023,24.3408772 L94.9859297,24.3408772 Z M89.0859836,23.8295739 C89.306385,22.9262669 89.5225446,21.8653232 89.734469,20.6467109 C89.9463934,19.4280986 90.1455994,18.1796789 90.3320929,16.9014143 C90.5185864,15.6231497 90.6796465,14.3832516 90.8152781,13.1816829 C90.9509097,11.9801141 91.0441551,10.9447353 91.0950169,10.0755154 L93.1549119,10.0755154 C93.1040501,10.9788224 93.0150431,12.0440269 92.8878885,13.2711609 C92.7607338,14.498295 92.612389,15.7509755 92.4428495,17.0292401 C92.2733099,18.3075047 92.0868192,19.5474028 91.8833718,20.7489716 C91.6799244,21.9505403 91.47648,22.9773975 91.2730326,23.8295739 L89.0859836,23.8295739 Z M102.869478,23.8295739 C102.716893,22.8921798 102.560071,21.809932 102.399008,20.582798 C102.237946,19.355664 102.089601,18.1115051 101.953969,16.850284 C101.818338,15.5890629 101.691185,14.3662081 101.572507,13.1816829 C101.45383,11.9971577 101.369061,10.9788221 101.318199,10.1266457 L103.352664,10.1266457 C103.403525,10.9788221 103.484055,11.988636 103.594256,13.1561177 C103.704457,14.3235994 103.83161,15.5379326 103.975718,16.7991536 C104.119827,18.0603747 104.276649,19.3045336 104.446188,20.5316677 C104.615728,21.7588017 104.785265,22.8580928 104.954804,23.8295739 L102.869478,23.8295739 Z" id="职微你" fill="#000000"></path>
                <path d="M4.12044926,33.2863718 C4.44088305,33.0480862 4.73387805,32.8042884 4.99944304,32.5549711 C5.26500803,32.3056538 5.50313505,32.0287613 5.71383124,31.7242853 C5.59092513,31.4727617 5.48887069,31.1980755 5.40766487,30.9002185 C5.32645904,30.6023616 5.26171483,30.2747238 5.21343029,29.9172955 C5.04223963,30.2305969 4.86885682,30.4865294 4.69327666,30.6851007 C4.68010815,30.6983388 4.66364776,30.7027514 4.64389499,30.6983387 C4.62414222,30.693926 4.60438975,30.6839976 4.58463698,30.6685531 C4.56488422,30.6531087 4.55061854,30.634355 4.54183953,30.6122916 C4.53306053,30.5902281 4.53306053,30.5681649 4.54183953,30.5461015 C4.65596664,30.3034032 4.76021579,30.0551928 4.85459013,29.8014628 C4.94896446,29.5477328 5.03236379,29.2962129 5.10479061,29.0468956 C5.17721742,28.7975783 5.23976691,28.55709 5.29244096,28.3254234 C5.34511501,28.0937569 5.38900939,27.8786412 5.42412542,27.6800699 C5.43290443,27.6227049 5.45046218,27.5840944 5.47679921,27.5642372 C5.50313623,27.5443801 5.55142005,27.5388643 5.62165211,27.5476897 C5.66993666,27.5565151 5.71602576,27.5653404 5.7599208,27.5741658 C5.80381584,27.5829911 5.84990494,27.5918164 5.89818948,27.6006418 C5.99914807,27.6315307 6.03426358,27.7043391 6.00353705,27.8190691 C5.96842102,27.9602754 5.93001344,28.1025827 5.88831315,28.2459953 C5.84661286,28.3894079 5.7994264,28.5339215 5.74675235,28.6795405 L7.61008747,28.6795405 C7.6364245,28.6795405 7.65946905,28.6894689 7.67922182,28.709326 C7.69897458,28.7291832 7.70885082,28.7501432 7.70885082,28.7722066 L7.70885082,28.8648728 C7.70885082,28.8869363 7.69787722,28.9078963 7.6759297,28.9277534 C7.65398218,28.9476105 7.63203499,28.9575389 7.61008747,28.9575389 L7.19528142,28.9575389 C7.14260737,29.5532529 7.04603974,30.0794589 6.90557561,30.5361729 C6.76511148,30.9928869 6.57856036,31.399952 6.34591665,31.7573804 C6.5127178,31.9559517 6.70365836,32.1346632 6.91874405,32.2935202 C7.13382975,32.4523773 7.38402772,32.6024067 7.66934548,32.7436129 C7.71324052,32.7656764 7.73518771,32.791049 7.73518771,32.8197315 C7.73518771,32.8484141 7.72421412,32.8804056 7.7022666,32.9157072 C7.66276106,32.9730722 7.61337988,33.0315396 7.55412158,33.091111 C7.49486327,33.1506824 7.43231378,33.211356 7.36647122,33.2731338 C7.31818668,33.3084353 7.27538966,33.327189 7.23807887,33.3293953 C7.20076809,33.3316017 7.15797107,33.3216733 7.10968652,33.2996098 C6.88582182,33.1495781 6.68061559,32.9863109 6.49406167,32.809803 C6.30750775,32.6332952 6.14180646,32.4347269 5.99695283,32.2140921 C5.76430912,32.4788538 5.50094283,32.7138264 5.20684606,32.9190167 C4.9127493,33.1242071 4.58793087,33.3106406 4.23238105,33.4783231 C4.21043353,33.4871485 4.1895837,33.483839 4.16983093,33.4683946 C4.15007816,33.4529501 4.13361777,33.4330933 4.12044926,33.4088235 C4.10728075,33.3845536 4.09959923,33.3613873 4.09740448,33.3393239 C4.09520973,33.3172604 4.10289124,33.2996099 4.12044926,33.2863718 Z M1.67111829,33.2863718 C1.85547745,32.9510069 2.00142627,32.6266786 2.10896912,32.3133772 C2.21651197,32.0000758 2.29881393,31.6889855 2.35587748,31.3800968 C2.41294104,31.0712081 2.45025126,30.7579114 2.46780928,30.4401973 C2.48536729,30.1224832 2.49634089,29.791536 2.50073039,29.4473457 L2.50073039,28.9045869 L1.91473454,28.9045869 C1.89278702,28.9045869 1.87193719,28.8957616 1.85218442,28.8781108 C1.83243165,28.86046 1.82255542,28.8383969 1.82255542,28.8119207 L1.82255542,28.7258736 C1.82255542,28.7038101 1.83243165,28.6828501 1.85218442,28.662993 C1.87193719,28.6431358 1.89278702,28.6332074 1.91473454,28.6332074 L3.26450026,28.6332074 L3.2447476,28.5868744 C3.18768404,28.4236046 3.12074511,28.2735752 3.04392879,28.1367816 C2.96711247,27.9999881 2.87603163,27.8565776 2.77068354,27.706546 C2.74873602,27.6712444 2.75422281,27.6348402 2.78714409,27.5973323 C2.82006537,27.5598244 2.85627824,27.5454833 2.89578377,27.5543087 C3.04941641,27.6028484 3.19536523,27.6778631 3.33363461,27.7793551 C3.47190398,27.8808471 3.58273729,27.9757186 3.66613787,28.0639725 C3.71442241,28.1125122 3.73966168,28.1687732 3.74185643,28.2327573 C3.74405119,28.2967414 3.73417495,28.3596214 3.71222743,28.4213991 C3.69905892,28.452288 3.68259853,28.4842795 3.66284576,28.5173747 C3.64309299,28.55047 3.615659,28.5846678 3.58054297,28.6199694 C3.57176396,28.6287948 3.56517981,28.6332074 3.5607903,28.6332074 L4.73936623,28.6332074 C4.76570325,28.6332074 4.7887478,28.6431358 4.80850057,28.662993 C4.82825334,28.6828501 4.83812957,28.7038101 4.83812957,28.7258736 L4.83812957,28.8119207 C4.83812957,28.8383969 4.82825334,28.86046 4.80850057,28.8781108 C4.7887478,28.8957616 4.76570325,28.9045869 4.73936623,28.9045869 L3.08672624,28.9045869 L3.08672624,29.2951085 C3.08233674,29.431902 3.07904466,29.5653841 3.07684991,29.6955586 C3.07465516,29.8257331 3.06916836,29.9525962 3.06038935,30.0761517 L3.86366456,30.0761517 L3.86366456,30.0165806 C3.86805407,29.968041 3.88561182,29.9283273 3.91633835,29.8974384 C3.94706487,29.8665496 3.9843751,29.8511054 4.02827014,29.8511054 L4.25871794,29.8577244 C4.30261298,29.8621371 4.33992321,29.8786844 4.37064974,29.9073669 C4.40137626,29.9360495 4.4167393,29.9768663 4.4167393,30.0298186 C4.41234979,30.2636915 4.40796035,30.498664 4.40357085,30.7347432 C4.39918135,30.9708225 4.39259719,31.1969697 4.38381818,31.4131918 C4.37503917,31.6294139 4.36406558,31.8301886 4.35089707,32.0155218 C4.33772855,32.200855 4.32456024,32.3597097 4.31139173,32.4920905 C4.28944421,32.673011 4.24884191,32.8219373 4.1895836,32.9388737 C4.1303253,33.0558102 4.00851839,33.1451659 3.82415922,33.2069437 C3.75831666,33.2290071 3.69686453,33.2433482 3.63980098,33.2499672 C3.58273743,33.2565863 3.51470114,33.2643084 3.43569006,33.2731338 C3.39179502,33.2775465 3.3544848,33.2731338 3.32375827,33.2598957 C3.29303174,33.2466577 3.2645004,33.2179756 3.23816337,33.1738486 C3.21182635,33.125309 3.1887818,33.0789763 3.16902903,33.0348494 C3.14927626,32.9907224 3.12842643,32.9443898 3.10647891,32.8958502 C3.07136288,32.8120089 3.09769951,32.7678827 3.18548959,32.76347 L3.45544273,32.7303749 C3.56956984,32.7083114 3.64528764,32.6719072 3.68259843,32.6211612 C3.71990921,32.5704152 3.7473432,32.4810595 3.76490122,32.3530913 C3.79123824,32.1236311 3.81099071,31.8390165 3.82415922,31.499239 C3.83732773,31.1594614 3.84830133,30.7733563 3.85708034,30.3409121 L3.0472209,30.3409121 C3.02527338,30.6409754 2.98906052,30.9277964 2.93858122,31.2013835 C2.88810193,31.4749706 2.81677356,31.7375221 2.72459397,31.9890457 C2.63241439,32.2405694 2.51389956,32.4865735 2.36904593,32.7270654 C2.2241923,32.9675573 2.04422534,33.2047361 1.82913964,33.438609 C1.81158162,33.4562598 1.79182915,33.4617756 1.76988163,33.4551565 C1.74793411,33.4485375 1.72708428,33.4364028 1.70733151,33.418752 C1.68757875,33.4011012 1.67331307,33.3801412 1.66453406,33.3558714 C1.65575506,33.3316016 1.65794978,33.3084353 1.67111829,33.2863718 Z M5.64798901,28.9575389 C5.60409397,29.072269 5.55910223,29.1847911 5.51301243,29.2951085 C5.46692264,29.4054259 5.41754146,29.5135353 5.36486742,29.61944 C5.45265749,29.9503922 5.54703041,30.2493478 5.64798901,30.5163159 C5.7489476,30.783284 5.86526771,31.0292881 5.99695283,31.2543356 C6.15936447,30.9410342 6.29104762,30.5968491 6.39200621,30.2217699 C6.4929648,29.8466908 6.55880637,29.4252847 6.5895329,28.9575389 L5.64798901,28.9575389 Z M18.1465437,29.01711 C18.1465437,28.9641577 18.1641014,28.9211345 18.1992174,28.8880393 C18.2343335,28.8549441 18.2826173,28.8383968 18.3440704,28.8383968 L18.5876866,28.8383968 C18.7149822,28.8383968 18.7786291,28.9001736 18.7786291,29.023729 L18.7786291,31.9956647 C18.7786291,32.1192202 18.7830185,32.2196075 18.7917975,32.2968297 C18.8005765,32.3740519 18.8247184,32.4347255 18.864224,32.4788525 C18.9037295,32.5229795 18.9640843,32.554971 19.0452901,32.5748282 C19.1264959,32.5946853 19.239524,32.6090263 19.3843776,32.6178517 C19.6038528,32.6266771 19.8595376,32.6277803 20.1514396,32.6211612 C20.4433416,32.6145422 20.7451155,32.6002011 21.0567702,32.5781377 C21.1533393,32.573725 21.1862601,32.6178513 21.1555336,32.7105179 C21.1423651,32.7546448 21.1215152,32.812009 21.0929835,32.8826121 C21.0644517,32.9532153 21.0370177,33.0127858 21.0106807,33.0613254 C20.9843437,33.1098651 20.9558123,33.144063 20.9250858,33.1639201 C20.8943593,33.1837772 20.8460754,33.1981183 20.7802329,33.2069437 C20.7012218,33.215769 20.5969727,33.222388 20.4674823,33.2268007 C20.3379919,33.2312134 20.1975299,33.2334197 20.046092,33.2334197 L19.5884885,33.2334197 C19.4348559,33.2334197 19.2987833,33.2290071 19.1802667,33.2201817 C18.982739,33.2113563 18.8181351,33.1859837 18.68645,33.1440631 C18.5547648,33.1021424 18.4494183,33.0370562 18.3704072,32.9488022 C18.2913962,32.8605483 18.2343335,32.7480263 18.1992174,32.6112327 C18.1641014,32.4744391 18.1465437,32.3045529 18.1465437,32.1015689 L18.1465437,29.01711 Z M16.6124197,31.6713332 C16.5816932,31.6007301 16.5740116,31.536747 16.5893749,31.4793819 C16.6047382,31.4220169 16.6365616,31.3602401 16.6848461,31.2940496 C16.8340893,31.0645895 16.9569935,30.816379 17.0535626,30.549411 C17.1501317,30.2824429 17.2445046,29.9658367 17.3366842,29.599583 C17.3410737,29.5819322 17.354242,29.5709006 17.3761896,29.5664879 C17.3981371,29.5620752 17.422279,29.5620752 17.448616,29.5664879 C17.474953,29.5709006 17.499095,29.5797259 17.5210425,29.5929639 C17.54299,29.606202 17.5539636,29.6238526 17.5539636,29.645916 C17.5671321,29.8842016 17.5660347,30.1202773 17.5506715,30.3541501 C17.5353082,30.588023 17.5078742,30.8075513 17.4683687,31.0127417 C17.4288632,31.217932 17.3783846,31.4032625 17.3169316,31.5687386 C17.2554785,31.7342147 17.1830528,31.8654904 17.0996522,31.9625697 C17.0469781,32.0243474 16.9910128,32.0530295 16.9317545,32.0486168 C16.8724962,32.0442041 16.8187256,32.0089031 16.770441,31.9427127 C16.7309355,31.894173 16.7002094,31.8489436 16.6782619,31.8070229 C16.6563144,31.7651023 16.6343672,31.7198729 16.6124197,31.6713332 Z M18.7654606,27.759498 C18.7522921,27.74626 18.7479027,27.7286094 18.7522922,27.706546 C18.7566817,27.6844825 18.7665579,27.6646257 18.7819212,27.6469749 C18.7972844,27.6293241 18.8148422,27.6160862 18.834595,27.6072608 C18.8543477,27.5984354 18.8730028,27.5962291 18.8905609,27.6006418 C19.2417212,27.8124512 19.5270347,28.0088132 19.7465099,28.1897337 C19.9659851,28.3706543 20.1196154,28.516271 20.2074055,28.6265884 C20.264469,28.6883662 20.2984872,28.7512461 20.3094609,28.8152302 C20.3204347,28.8792143 20.3149479,28.9597448 20.2930004,29.0568241 C20.2842214,29.0921257 20.2699557,29.1329425 20.2502029,29.1792758 C20.2304502,29.2256091 20.2030162,29.2730449 20.1679001,29.3215845 C20.1196156,29.3966003 20.0614555,29.4330045 19.9934182,29.4307982 C19.9253809,29.4285918 19.8716103,29.3899813 19.8321048,29.3149655 C19.7706517,29.2046481 19.7048101,29.0910229 19.6345781,28.9740865 C19.564346,28.85715 19.4864335,28.7346996 19.4008382,28.6067314 C19.3152428,28.4787632 19.2208699,28.3452812 19.1177166,28.2062813 C19.0145632,28.0672813 18.8971457,27.9183551 18.7654606,27.759498 Z M20.9185016,29.7650582 C20.9053331,29.7474074 20.9031383,29.7275506 20.9119173,29.7054871 C20.9206963,29.6834236 20.9338647,29.6635668 20.9514227,29.645916 C20.9689807,29.6282652 20.9887332,29.6161305 21.0106807,29.6095115 C21.0326282,29.6028924 21.0523807,29.6039956 21.0699387,29.612821 C21.2279608,29.7319638 21.3761044,29.8555174 21.5143737,29.9834856 C21.6526431,30.1114537 21.7777421,30.2339042 21.8896745,30.3508406 C22.0016068,30.4677771 22.0981745,30.5769897 22.1793803,30.6784817 C22.2605861,30.7799737 22.3209409,30.8638136 22.3604464,30.9300041 C22.408731,31.0050199 22.4350676,31.0745188 22.4394571,31.1385029 C22.4438466,31.202487 22.4284836,31.2786048 22.3933675,31.3668587 C22.380199,31.4021603 22.3615439,31.4440803 22.3374016,31.4926199 C22.3132594,31.5411596 22.2792412,31.5896985 22.2353462,31.6382382 C22.1695036,31.7044286 22.1025647,31.7331107 22.0345274,31.7242853 C21.9664901,31.7154599 21.9149142,31.6691273 21.8797981,31.5852861 C21.7788395,31.3425878 21.6526432,31.070108 21.5012053,30.7678383 C21.3497674,30.4655686 21.1555348,30.131312 20.9185016,29.7650582 Z M31.1915888,32.2604252 C31.1784203,32.1986474 31.180615,32.1501085 31.1981731,32.1148069 C31.2157311,32.0795054 31.2574307,32.0574422 31.3232733,32.0486168 L31.6459002,31.9890457 L31.6459002,28.1831147 L31.3496102,28.1831147 C31.3276627,28.1831147 31.3057155,28.1742895 31.283768,28.1566387 C31.2618204,28.1389879 31.2508468,28.1191311 31.2508468,28.0970676 L31.2508468,28.0110204 C31.2508468,27.988957 31.2618204,27.967997 31.283768,27.9481398 C31.3057155,27.9282827 31.3276627,27.9183543 31.3496102,27.9183543 L33.8450307,27.9183543 C33.8757572,27.9183543 33.9009965,27.9282827 33.9207493,27.9481398 C33.940502,27.967997 33.9503783,27.988957 33.9503783,28.0110204 L33.9503783,28.0970676 C33.9503783,28.1191311 33.940502,28.1389879 33.9207493,28.1566387 C33.9009965,28.1742895 33.877952,28.1831147 33.8516149,28.1831147 L33.5092353,28.1831147 L33.5092353,31.6382382 L33.9767152,31.545572 C34.0293892,31.5411593 34.0645047,31.5676351 34.0820627,31.6250002 C34.1040103,31.6911906 34.090842,31.7353169 34.0425574,31.7573804 C33.9854939,31.7794438 33.9108734,31.8092291 33.8186938,31.846737 C33.7265142,31.8842449 33.6233624,31.9228554 33.5092353,31.9625697 L33.5092353,33.2598957 C33.5092353,33.3128481 33.4938723,33.3536649 33.4631458,33.3823474 C33.4324193,33.41103 33.3973037,33.425371 33.3577982,33.425371 L33.1207662,33.425371 C33.0812606,33.425371 33.0450478,33.41103 33.0121265,33.3823474 C32.9792052,33.3536649 32.9627448,33.3128481 32.9627448,33.2598957 L32.9627448,32.154521 C32.8266702,32.2030606 32.6895003,32.2504964 32.5512309,32.2968297 C32.4129615,32.343163 32.280181,32.3872893 32.1528854,32.4292099 C32.0255898,32.4711305 31.9059776,32.509741 31.7940452,32.5450426 C31.6821129,32.5803442 31.5866426,32.6090263 31.5076315,32.6310897 C31.43301,32.6531532 31.3814341,32.658669 31.3529023,32.6476373 C31.3243705,32.6366055 31.2991312,32.6002013 31.2771837,32.5384236 C31.2552362,32.4987093 31.2376785,32.454583 31.2245099,32.4060434 C31.2113414,32.3575037 31.2003678,32.3089648 31.1915888,32.2604252 Z M36.2351037,28.0110204 C36.2351037,27.9580681 36.2515641,27.9172513 36.2844854,27.8885688 C36.3174066,27.8598862 36.3536195,27.8455452 36.393125,27.8455452 L36.656494,27.8455452 C36.6959995,27.8455452 36.7322124,27.8598862 36.7651336,27.8885688 C36.7980549,27.9172513 36.8145153,27.9580681 36.8145153,28.0110204 L36.8145153,30.877052 C36.8145153,30.9300043 36.7991523,30.9708211 36.7684257,30.9995037 C36.7376992,31.0281862 36.700389,31.0425272 36.656494,31.0425272 L36.393125,31.0425272 C36.3536195,31.0425272 36.3174066,31.0281862 36.2844854,30.9995037 C36.2515641,30.9708211 36.2351037,30.9300043 36.2351037,30.877052 L36.2351037,30.7380528 L34.7339008,30.7380528 L34.7339008,30.883671 C34.7339008,30.9366233 34.7185378,30.9774402 34.6878113,31.0061227 C34.6570847,31.0348052 34.6197745,31.0491462 34.5758795,31.0491462 L34.3190948,31.0491462 C34.2795892,31.0491462 34.2433764,31.0348052 34.2104551,31.0061227 C34.1775338,30.9774402 34.1610734,30.9366233 34.1610734,30.883671 L34.1610734,28.0044014 C34.1610734,27.9558618 34.1775338,27.9172513 34.2104551,27.8885688 C34.2433764,27.8598862 34.2795892,27.8455452 34.3190948,27.8455452 L34.5758795,27.8455452 C34.615385,27.8455452 34.6515979,27.8598862 34.6845192,27.8885688 C34.7174404,27.9172513 34.7339008,27.9558618 34.7339008,28.0044014 L34.7339008,28.0308775 L36.2351037,28.0308775 L36.2351037,28.0110204 Z M34.7339008,30.4732923 L36.2351037,30.4732923 L36.2351037,28.3022569 L34.7339008,28.3022569 L34.7339008,30.4732923 Z M33.6804251,33.2863718 C33.9042898,32.9730704 34.0985225,32.6586705 34.2631289,32.3431628 C34.4277353,32.027655 34.5670999,31.7088426 34.681227,31.3867158 C34.7031746,31.324938 34.7317059,31.2874307 34.7668219,31.2741926 C34.801938,31.2609545 34.8480271,31.2653671 34.9050906,31.2874306 L35.1684595,31.3933348 C35.2299126,31.4286364 35.2650281,31.4650405 35.2738071,31.5025485 C35.2825861,31.5400564 35.2716125,31.5896985 35.240886,31.6514762 C35.1750434,31.7838571 35.0938388,31.9316802 34.9972697,32.0949499 C34.9007007,32.2582196 34.7909647,32.4203838 34.6680586,32.5814472 C34.5451525,32.7425106 34.4134693,32.8980558 34.2730052,33.0480874 C34.1325411,33.1981191 33.9876896,33.3260853 33.8384465,33.43199 C33.7945515,33.4584662 33.7484624,33.4518472 33.7001778,33.412133 C33.6606723,33.3724187 33.6540881,33.3304987 33.6804251,33.2863718 Z M35.7742081,31.4595249 C35.747871,31.4242233 35.7610394,31.386716 35.8137134,31.3470017 C35.8532189,31.3072875 35.8905292,31.3006685 35.9256452,31.3271447 C36.0441618,31.424224 36.1648714,31.5345397 36.2877775,31.6580952 C36.4106836,31.7816507 36.5259063,31.9063075 36.6334492,32.0320693 C36.740992,32.1578311 36.8364623,32.2780753 36.9198629,32.3928054 C37.0032635,32.5075355 37.0647156,32.602407 37.1042211,32.6774228 C37.1393372,32.7303752 37.1590896,32.7877394 37.1634791,32.8495171 C37.1678686,32.9112948 37.1525056,32.9818969 37.1173896,33.0613254 C37.0998316,33.1098651 37.0745923,33.1606103 37.041671,33.2135627 C37.0087497,33.266515 36.9769263,33.308435 36.9461998,33.3393239 C36.8935257,33.3878635 36.8353657,33.4088235 36.7717179,33.4022045 C36.7080701,33.3955854 36.6586889,33.343737 36.6235728,33.2466577 C36.5752883,33.1275149 36.5204203,32.995136 36.4589673,32.8495171 C36.3975142,32.7038981 36.3305753,32.5527656 36.2581485,32.3961149 C36.1857216,32.2394642 36.1078091,32.0806095 36.0244085,31.9195461 C35.941008,31.7584827 35.8576086,31.6051439 35.7742081,31.4595249 Z M32.1858065,29.2620134 L32.9627448,29.2620134 L32.9627448,28.1831147 L32.1858065,28.1831147 L32.1858065,29.2620134 Z M32.1858065,30.5527205 L32.9627448,30.5527205 L32.9627448,29.5201548 L32.1858065,29.5201548 L32.1858065,30.5527205 Z M32.1858065,31.8897606 L32.9627448,31.7375233 L32.9627448,30.8108619 L32.1858065,30.8108619 L32.1858065,31.8897606 Z M45.8168475,30.7711478 C46.1548393,30.2283862 46.4291792,29.6966644 46.6398754,29.1759663 C46.8505716,28.6552682 47.0129808,28.1522284 47.1271079,27.6668319 C47.1490554,27.5609272 47.2214812,27.5234199 47.3443873,27.5543087 C47.3970613,27.5675468 47.4530267,27.5840942 47.512285,27.6039513 C47.5715433,27.6238084 47.6187297,27.6403558 47.6538458,27.6535939 C47.7504148,27.6888954 47.7811409,27.7572912 47.7460249,27.8587832 C47.6626243,28.0970688 47.5726408,28.3331445 47.4760717,28.5670173 C47.3795026,28.8008902 47.2741561,29.0303469 47.160029,29.2553944 C47.2302611,29.2862833 47.2653766,29.3414412 47.2653766,29.4208697 L47.2653766,33.2665147 C47.2653766,33.3150544 47.2489162,33.3547681 47.2159949,33.3856569 C47.1830736,33.4165458 47.1468608,33.43199 47.1073552,33.43199 L46.8374021,33.43199 C46.7978966,33.43199 46.7616837,33.4165458 46.7287624,33.3856569 C46.6958411,33.3547681 46.6793807,33.3150544 46.6793807,33.2665147 L46.6793807,30.0827707 C46.455516,30.4137229 46.2162917,30.6983375 45.9617004,30.9366231 C45.9485319,30.9498612 45.9298768,30.9531706 45.9057345,30.9465516 C45.8815923,30.9399325 45.8607424,30.9277978 45.8431844,30.910147 C45.8256264,30.8924962 45.8135554,30.8704331 45.8069712,30.8439569 C45.8003869,30.8174807 45.803679,30.7932113 45.8168475,30.7711478 Z M47.541914,32.9024692 C47.541914,32.8804057 47.5506928,32.8594457 47.5682509,32.8395886 C47.5858089,32.8197314 47.6077561,32.809803 47.6340931,32.809803 L49.7542129,32.809803 C49.9473511,32.2052637 50.1042735,31.632725 50.2249849,31.0921698 C50.3456962,30.5516146 50.4367771,30.0739474 50.4982301,29.6591541 C50.5070091,29.5973763 50.5322484,29.5543532 50.5739487,29.5300833 C50.615649,29.5058135 50.6650301,29.5002977 50.7220937,29.5135358 L51.0447206,29.5929639 C51.1061737,29.6150274 51.1445813,29.6448127 51.1599445,29.6823206 C51.1753078,29.7198285 51.1785999,29.7628516 51.1698209,29.8113913 C51.1215363,30.0143753 51.0535,30.2548636 50.9657099,30.5328634 C50.8779199,30.8108633 50.7813522,31.0921684 50.6760041,31.3767873 C50.570656,31.6614061 50.4620174,31.9316797 50.3500851,32.187616 C50.2381527,32.4435524 50.1360983,32.650946 50.0439187,32.809803 L51.7097272,32.809803 C51.7404537,32.809803 51.7645956,32.8197314 51.7821536,32.8395886 C51.7997116,32.8594457 51.8084905,32.8804057 51.8084905,32.9024692 L51.8084905,33.0149924 C51.8084905,33.0370558 51.7986143,33.0569127 51.7788615,33.0745634 C51.7591087,33.0922142 51.7382589,33.1010395 51.7163114,33.1010395 L47.6340931,33.1010395 C47.57264,33.1010395 47.541914,33.0723574 47.541914,33.0149924 L47.541914,32.9024692 Z M49.0299484,27.706546 C49.0211694,27.6933079 49.020072,27.6756574 49.0266563,27.6535939 C49.0332405,27.6315304 49.0442141,27.6116736 49.0595774,27.5940228 C49.0749406,27.576372 49.0924984,27.5631341 49.1122512,27.5543087 C49.1320039,27.5454833 49.1528538,27.5454833 49.1748013,27.5543087 C49.3196549,27.6293246 49.463409,27.7153708 49.6060679,27.8124501 C49.7487268,27.9095294 49.8551706,27.9999883 49.9254027,28.0838296 C49.9780768,28.1456073 50.0066081,28.2051778 50.0109976,28.2625428 C50.0153871,28.3199079 50.0044135,28.3794784 49.9780765,28.4412561 C49.956129,28.4942085 49.9319871,28.5394379 49.90565,28.5769458 C49.879313,28.6144538 49.8485869,28.6508579 49.8134709,28.6861595 C49.7871339,28.7126357 49.7651867,28.7280799 49.7476287,28.7324926 L51.5780427,28.7324926 C51.6087692,28.7324926 51.6329111,28.7413178 51.6504691,28.7589686 C51.6680272,28.7766194 51.676806,28.7964762 51.676806,28.8185397 L51.676806,28.9244439 C51.676806,28.9509201 51.6669298,28.9729832 51.647177,28.990634 C51.6274243,29.0082848 51.6065744,29.01711 51.5846269,29.01711 L47.8447882,29.01711 C47.8228407,29.01711 47.8019909,29.0082848 47.7822381,28.990634 C47.7624853,28.9729832 47.7526091,28.9509201 47.7526091,28.9244439 L47.7526091,28.8185397 C47.7526091,28.7964762 47.7624853,28.7766194 47.7822381,28.7589686 C47.8019909,28.7413178 47.8228407,28.7324926 47.8447882,28.7324926 L49.5566862,28.7324926 C49.5171807,28.7060164 49.4908441,28.6707154 49.4776755,28.6265884 C49.429391,28.4853822 49.3679389,28.3364559 49.2933173,28.1798052 C49.2186957,28.0231545 49.130907,27.865403 49.0299484,27.706546 Z M48.1476625,29.612821 C48.143273,29.5951702 48.1487598,29.5764165 48.164123,29.5565594 C48.1794863,29.5367023 48.1992388,29.5212581 48.223381,29.5102263 C48.2475233,29.4991946 48.2727626,29.4936788 48.2990996,29.4936788 C48.3254366,29.4936788 48.3473838,29.5069167 48.3649418,29.5333929 C48.4702899,29.6922499 48.5745391,29.8632393 48.6776924,30.0463662 C48.7808458,30.229493 48.8763161,30.4093077 48.9641061,30.5858155 C49.0518962,30.7623233 49.127614,30.9289001 49.1912618,31.0855508 C49.2549096,31.2422015 49.2999014,31.3734772 49.3262384,31.4793819 C49.3613544,31.5985247 49.3778148,31.6956026 49.3756201,31.7706184 C49.3734253,31.8456342 49.3547702,31.9228552 49.3196542,32.0022838 C49.3064857,32.041998 49.2867332,32.0795054 49.2603962,32.1148069 C49.2340592,32.1501085 49.2099172,32.1809969 49.1879697,32.2074731 C49.1177377,32.2824889 49.0409225,32.3122742 48.9575219,32.2968297 C48.8741213,32.2813853 48.8258375,32.2229179 48.812669,32.1214259 C48.7556055,31.7948865 48.6733035,31.4176066 48.5657606,30.9895752 C48.4582178,30.5615437 48.3188531,30.1026302 48.1476625,29.612821 Z M60.7647332,33.7497025 C60.7471751,33.7232263 60.740591,33.6945442 60.7449805,33.6636554 C60.7625385,33.6327665 60.7888751,33.608497 60.8239912,33.5908463 C61.0390769,33.4452273 61.1488128,33.24004 61.1532023,32.9752783 L60.935923,32.9752783 C60.8349644,32.9708656 60.7822911,32.917914 60.7779016,32.816422 L60.7779016,32.4192814 C60.7735121,32.3707418 60.7888751,32.3288218 60.8239912,32.2935202 C60.8547177,32.2714567 60.8920279,32.2604252 60.935923,32.2604252 L61.3309763,32.2604252 C61.3748714,32.2604252 61.4121816,32.2714567 61.4429081,32.2935202 C61.4780242,32.3288218 61.4933872,32.3707418 61.4889977,32.4192814 L61.4889977,32.8826121 C61.4889977,33.0723581 61.447298,33.2532759 61.3638975,33.425371 C61.2804969,33.5930534 61.1597873,33.7254323 61.0017652,33.8225116 C60.9666492,33.8489878 60.9293389,33.8622257 60.8898334,33.8622257 C60.8547174,33.857813 60.8283807,33.8423688 60.8108227,33.8158926 L60.7647332,33.7497025 Z M74.9422647,27.9713064 C74.9422647,27.9227667 74.9576277,27.8830531 74.9883542,27.8521642 C75.0190808,27.8212753 75.056391,27.8058311 75.100286,27.8058311 L75.4031603,27.8058311 C75.4426658,27.8058311 75.4788787,27.8201722 75.5118,27.8488547 C75.5447213,27.8775372 75.5611817,27.918354 75.5611817,27.9713064 L75.5611817,30.9763371 C75.5611817,31.0292895 75.5447213,31.0701063 75.5118,31.0987888 C75.4788787,31.1274713 75.4426658,31.1418124 75.4031603,31.1418124 L75.100286,31.1418124 C75.0607805,31.1418124 75.0245676,31.1274713 74.9916464,31.0987888 C74.9587251,31.0701063 74.9422647,31.0292895 74.9422647,30.9763371 L74.9422647,30.8571949 L71.8147587,30.8571949 L71.8147587,31.0028132 C71.8147587,31.0513528 71.7993957,31.0899633 71.7686692,31.1186459 C71.7379426,31.1473284 71.7006324,31.1616694 71.6567374,31.1616694 L71.3538631,31.1616694 C71.3143576,31.1616694 71.2781447,31.1473284 71.2452234,31.1186459 C71.2123022,31.0899633 71.1958418,31.0513528 71.1958418,31.0028132 L71.1958418,27.9845444 C71.1958418,27.9360048 71.2123022,27.8962911 71.2452234,27.8654022 C71.2781447,27.8345133 71.3143576,27.8190691 71.3538631,27.8190691 L71.6567374,27.8190691 C71.6962429,27.8190691 71.7324558,27.8345133 71.7653771,27.8654022 C71.7982983,27.8962911 71.8147587,27.9360048 71.8147587,27.9845444 L71.8147587,27.9911634 L74.9422647,27.9911634 L74.9422647,27.9713064 Z M71.8147587,30.5791965 L74.9422647,30.5791965 L74.9422647,28.2757809 L71.8147587,28.2757809 L71.8147587,30.5791965 Z M70.3859823,33.2334197 C70.8029852,32.9201183 71.1651139,32.6178532 71.4723791,32.3266153 C71.7796444,32.0353773 72.025453,31.7375249 72.2098121,31.4330489 C72.2449282,31.3800965 72.2866278,31.3503113 72.3349124,31.3436922 C72.3831969,31.3370732 72.429286,31.3470016 72.473181,31.3734778 C72.5302446,31.4087793 72.5862099,31.4451835 72.6410787,31.4826914 C72.6959475,31.5201993 72.7409393,31.5566035 72.7760553,31.5919051 C72.8155608,31.6272067 72.834216,31.6669203 72.8320212,31.7110473 C72.8298264,31.7551742 72.8155608,31.7948879 72.7892237,31.8301895 C72.6838757,31.9581577 72.5489004,32.0971555 72.384294,32.2471871 C72.2196876,32.3972188 72.0364286,32.5450419 71.8345114,32.6906608 C71.6325942,32.8362798 71.4164144,32.9741745 71.1859654,33.104349 C70.9555165,33.2345235 70.7261683,33.3459424 70.4979141,33.438609 C70.4759666,33.4474344 70.4551168,33.4441249 70.435364,33.4286805 C70.4156112,33.4132361 70.3991508,33.3933792 70.3859823,33.3691094 C70.3728138,33.3448396 70.3651323,33.319467 70.3629376,33.2929908 C70.3607428,33.2665146 70.3684243,33.2466578 70.3859823,33.2334197 Z M73.9875523,31.5852861 C73.9743838,31.572048 73.9710918,31.5521912 73.977676,31.525715 C73.9842603,31.4992388 73.9952339,31.4738662 74.0105971,31.4495964 C74.0259604,31.4253266 74.0457129,31.4054697 74.0698551,31.3900253 C74.0939974,31.3745808 74.1192367,31.3734777 74.1455737,31.3867158 C74.3299329,31.4926205 74.5131919,31.6029362 74.6953563,31.7176663 C74.8775207,31.8323964 75.0476115,31.9460216 75.2056336,32.0585453 C75.3636557,32.1710691 75.5052151,32.2802817 75.630316,32.3861864 C75.7554169,32.4920911 75.8508871,32.5869626 75.9167297,32.6708038 C76.0045198,32.7722958 76.0330511,32.8914368 76.0023246,33.0282304 C75.9891561,33.0900081 75.9715983,33.1484755 75.9496508,33.2036342 C75.9277033,33.2587928 75.9035614,33.3040223 75.8772244,33.3393239 C75.8201608,33.4187524 75.7554166,33.4584661 75.6829898,33.4584661 C75.610563,33.4584661 75.5458187,33.4165461 75.4887552,33.3327049 C75.2561115,33.0061654 75.0201792,32.7039003 74.7809512,32.4259004 C74.5417233,32.1479006 74.2772596,31.8676986 73.9875523,31.5852861 Z M85.070499,33.2665147 C85.4523859,32.9973403 85.7848858,32.7248604 86.0680088,32.449067 C86.3511318,32.1732735 86.5892589,31.8809368 86.782397,31.5720481 C86.9755352,31.2631594 87.1291655,30.931109 87.2432926,30.575887 C87.3574198,30.220665 87.4342349,29.8312504 87.4737405,29.4076317 L85.2943626,29.4076317 C85.2329096,29.4076317 85.2021835,29.3789496 85.2021835,29.3215845 L85.2021835,29.2090613 C85.2021835,29.1869979 85.2109624,29.167141 85.2285204,29.1494902 C85.2460784,29.1318395 85.2680256,29.1230142 85.2943626,29.1230142 L87.4934931,29.1230142 C87.4978826,29.1009507 87.5000773,29.0656497 87.5000773,29.01711 L87.5527511,27.719784 C87.5571406,27.6712443 87.5757957,27.6304275 87.608717,27.5973323 C87.6416383,27.5642371 87.6844353,27.5476897 87.7371094,27.5476897 L88.0531521,27.5741658 C88.1585002,27.5874038 88.206784,27.6491807 88.198005,27.759498 L88.138747,29.0502051 C88.138747,29.0634432 88.1376496,29.0766811 88.1354549,29.0899192 C88.1332601,29.1031572 88.1321628,29.1141888 88.1321628,29.1230142 L90.0350032,29.1230142 L90.0350032,28.984015 C90.0350032,28.9354753 90.0514636,28.8946585 90.0843849,28.8615633 C90.1173062,28.8284681 90.1579085,28.8119207 90.206193,28.8119207 L90.5288199,28.8119207 C90.572715,28.8163334 90.6100252,28.8350871 90.6407517,28.8681823 C90.6714783,28.9012775 90.6868413,28.9443007 90.6868413,28.997253 C90.6824518,29.3414433 90.6758676,29.6867315 90.6670886,30.0331281 C90.6583096,30.3795248 90.647336,30.7071625 90.6341675,31.0160512 C90.620999,31.3249399 90.605636,31.6018324 90.588078,31.846737 C90.5705199,32.0916416 90.5529622,32.2869005 90.5354042,32.4325194 C90.5222357,32.5604876 90.5035805,32.6741128 90.4794383,32.7733985 C90.455296,32.8726841 90.4201805,32.9587304 90.3740907,33.0315399 C90.3280009,33.1043494 90.2676461,33.1661262 90.1930246,33.2168722 C90.118403,33.2676182 90.0240301,33.308435 89.909903,33.3393239 C89.8308919,33.3613873 89.7442005,33.3790379 89.6498262,33.3922759 C89.5554518,33.405514 89.449008,33.4143393 89.3304914,33.418752 C89.2778173,33.418752 89.237215,33.4132362 89.2086832,33.4022045 C89.1801515,33.3911727 89.1505227,33.3613875 89.1197962,33.3128478 C89.0890697,33.2643082 89.0561489,33.2047377 89.0210329,33.1341345 C88.9859168,33.0635314 88.9573855,33.0083735 88.935438,32.9686593 C88.8915429,32.8804054 88.9178796,32.8296601 89.0144486,32.816422 L89.46876,32.770089 C89.6136137,32.7436128 89.7167655,32.7005897 89.7782185,32.6410183 C89.8396716,32.5814469 89.8813712,32.4744406 89.9033188,32.3199963 C89.9164873,32.2096789 89.9307529,32.0530305 89.9461162,31.8500465 C89.9614795,31.6470625 89.9757451,31.4153995 89.9889137,31.1550504 C90.0020822,30.8947014 90.0130558,30.6144994 90.0218348,30.3144361 C90.0306138,30.0143728 90.0350032,29.7121077 90.0350032,29.4076317 L88.1124101,29.4076317 C88.068515,29.8753774 87.9873104,30.3011961 87.8687938,30.6851007 C87.7502772,31.0690052 87.5779918,31.4231187 87.3519323,31.7474518 C87.1258729,32.071785 86.8372673,32.3751533 86.486107,32.6575658 C86.1349467,32.9399783 85.7047817,33.2135613 85.1955993,33.4783231 C85.1736518,33.4871485 85.1517046,33.483839 85.1297571,33.4683946 C85.1078095,33.4529501 85.0891544,33.4330933 85.0737912,33.4088235 C85.0584279,33.3845536 85.0485517,33.3580779 85.0441622,33.3293953 C85.0397726,33.3007128 85.0485515,33.2797528 85.070499,33.2665147 Z M88.1782523,30.4534353 C88.1650838,30.4357845 88.1617917,30.4159277 88.168376,30.3938642 C88.1749602,30.3718007 88.1859338,30.3519439 88.2012971,30.3342931 C88.2166604,30.3166423 88.2342181,30.3023013 88.2539709,30.2912695 C88.2737237,30.2802378 88.2945735,30.2791347 88.316521,30.28796 C88.5798912,30.4512298 88.7938764,30.6034655 88.9584828,30.7446718 C89.1230891,30.885878 89.2427013,31.0072253 89.3173229,31.1087173 C89.387555,31.201384 89.4007233,31.313906 89.3568282,31.4462869 C89.3392702,31.4948265 89.317323,31.5422623 89.290986,31.5885956 C89.264649,31.6349289 89.2339229,31.6713331 89.1988069,31.6978093 C89.1505223,31.7463489 89.0978491,31.7673089 89.0407855,31.7606899 C88.983722,31.7540708 88.9376329,31.713254 88.9025169,31.6382382 C88.8015583,31.4264288 88.6918223,31.2223447 88.5733057,31.0259797 C88.4547891,30.8296148 88.323106,30.6387685 88.1782523,30.4534353 Z M85.7750109,27.8654022 C85.7618424,27.8521641 85.7585503,27.8356168 85.7651346,27.8157596 C85.7717188,27.7959025 85.7815951,27.7760457 85.7947636,27.7561885 C85.8079321,27.7363314 85.8243925,27.7219904 85.8441453,27.713165 C85.863898,27.7043396 85.8825531,27.7021333 85.9001111,27.706546 C86.1459234,27.8256887 86.3478375,27.9404171 86.5058597,28.0507345 C86.6638818,28.1610519 86.7823966,28.2603361 86.8614077,28.34859 C86.9360293,28.4280185 86.953587,28.5339216 86.9140815,28.6663025 C86.8965235,28.7148421 86.876771,28.7600716 86.8548235,28.8019922 C86.832876,28.8439128 86.8065393,28.8781107 86.7758128,28.9045869 C86.7319178,28.9487138 86.6825366,28.9685706 86.6276678,28.964158 C86.572799,28.9597453 86.5278073,28.9244442 86.4926912,28.8582538 C86.4356277,28.7611745 86.3807597,28.6696124 86.3280856,28.5835649 C86.2754116,28.4975173 86.2205436,28.4158836 86.1634801,28.3386615 C86.1064165,28.2614393 86.0460617,28.1842183 85.9824139,28.1069961 C85.9187661,28.0297739 85.8496325,27.9492434 85.7750109,27.8654022 Z M99.7089262,30.6586246 C100.060087,30.1379265 100.339913,29.629371 100.548415,29.1329427 C100.756916,28.6365145 100.924812,28.1478157 101.052108,27.6668319 C101.065276,27.6182922 101.091613,27.5840944 101.131118,27.5642372 C101.170624,27.5443801 101.216713,27.5410706 101.269387,27.5543087 L101.578846,27.6535939 C101.679804,27.6977208 101.712725,27.7683229 101.677609,27.8654022 C101.589819,28.1036878 101.496543,28.336454 101.397779,28.5637078 C101.299016,28.7909616 101.192572,29.01049 101.078445,29.2222994 C101.109171,29.2311248 101.135508,29.2498784 101.157455,29.2785609 C101.179403,29.3072435 101.190376,29.3414413 101.190376,29.3811556 L101.190376,33.2532767 C101.190376,33.3018164 101.173916,33.34153 101.140995,33.3724189 C101.108073,33.4033078 101.071861,33.418752 101.032355,33.418752 L100.768986,33.418752 C100.729481,33.418752 100.693268,33.4044109 100.660346,33.3757284 C100.627425,33.3470459 100.610965,33.3062291 100.610965,33.2532767 L100.610965,29.9768666 C100.496838,30.1313109 100.377225,30.2802371 100.252125,30.4236498 C100.127024,30.5670624 99.9942432,30.7005444 99.8537791,30.8240999 C99.8406106,30.837338 99.8219555,30.8406474 99.7978132,30.8340284 C99.7736709,30.8274094 99.7528211,30.8152746 99.7352631,30.7976238 C99.7177051,30.7799731 99.7056341,30.7579099 99.6990499,30.7314337 C99.6924656,30.7049576 99.6957577,30.6806881 99.7089262,30.6586246 Z M104.521993,29.6988681 C104.596615,29.5355984 104.666846,29.3712279 104.732688,29.2057518 C104.798531,29.0402757 104.857788,28.8869369 104.910462,28.7457306 L102.856185,28.7457306 C102.7245,28.9972543 102.571967,29.2443615 102.398581,29.4870598 C102.225196,29.729758 102.026574,29.9525958 101.802709,30.1555798 C101.785151,30.1688179 101.765399,30.1732306 101.743451,30.1688179 C101.721504,30.1644052 101.700654,30.1533736 101.680901,30.1357228 C101.661148,30.118072 101.646883,30.0993183 101.638104,30.0794612 C101.629325,30.0596041 101.631519,30.0386441 101.644688,30.0165806 C101.908058,29.575311 102.118751,29.1627302 102.276773,28.7788257 C102.434795,28.3949211 102.5577,28.0308792 102.64549,27.6866889 C102.671827,27.5851969 102.742058,27.5410706 102.856185,27.5543087 L103.159059,27.6337369 C103.207344,27.6469749 103.23807,27.6745539 103.251238,27.7164745 C103.264407,27.7583951 103.262212,27.8036245 103.244654,27.8521642 C103.209538,27.9492435 103.17113,28.0485277 103.12943,28.1500197 C103.08773,28.2515117 103.042738,28.3552085 102.994453,28.4611132 L105.01581,28.4611132 L105.048731,28.361828 C105.083847,28.2250344 105.173831,28.1875271 105.318684,28.2493048 C105.371358,28.2713683 105.418545,28.2934314 105.460245,28.3154949 C105.501945,28.3375584 105.542548,28.3596216 105.582053,28.381685 C105.639117,28.4169866 105.67094,28.4578034 105.677524,28.5041367 C105.684109,28.55047 105.669843,28.6001121 105.634727,28.6530645 C105.582053,28.732493 105.518406,28.8262614 105.443784,28.9343724 C105.369163,29.0424834 105.289056,29.151696 105.20346,29.2620134 C105.117865,29.3723308 105.031174,29.4771308 104.943384,29.5764164 C104.855593,29.6757021 104.772194,29.7584389 104.693183,29.8246293 C104.675625,29.8378674 104.655873,29.84228 104.633925,29.8378673 C104.611978,29.8334546 104.591128,29.8235262 104.571375,29.8080818 C104.551622,29.7926374 104.536259,29.7749868 104.525285,29.7551297 C104.514312,29.7352726 104.513214,29.7165189 104.521993,29.6988681 Z M102.684995,33.0480874 C102.667437,33.0127858 102.663048,32.9807943 102.671827,32.9521118 C102.680606,32.9234292 102.711332,32.9068819 102.764006,32.9024692 L103.119554,32.8627551 C103.198565,32.8406916 103.260017,32.8042874 103.303912,32.7535414 C103.347807,32.7027954 103.369754,32.615646 103.369754,32.4920905 L103.369754,29.6723921 C103.369754,29.6106143 103.38402,29.5631786 103.412552,29.5300833 C103.441083,29.4969881 103.492659,29.4804408 103.567281,29.4804408 L103.751639,29.4804408 C103.83065,29.4804408 103.884421,29.4991944 103.912953,29.5367024 C103.941484,29.5742103 103.95575,29.6194397 103.95575,29.6723921 L103.95575,32.6178517 C103.95575,32.8075976 103.928316,32.9664523 103.873447,33.0944205 C103.818578,33.2223887 103.703356,33.3128476 103.527776,33.3657999 C103.431206,33.3966888 103.286355,33.4187519 103.093217,33.43199 C103.027374,33.4408154 102.977993,33.4375059 102.945072,33.4220615 C102.912151,33.4066171 102.880327,33.3746255 102.849601,33.3260858 C102.823264,33.2863716 102.793635,33.2389358 102.760714,33.1837771 C102.727792,33.1286184 102.702553,33.083389 102.684995,33.0480874 Z M101.493251,32.4457575 C101.602988,32.2471861 101.700653,32.0618557 101.786249,31.8897606 C101.871844,31.7176654 101.947562,31.5488824 102.013404,31.3834063 C102.079247,31.2179302 102.139602,31.0535597 102.19447,30.89029 C102.249339,30.7270203 102.300915,30.557134 102.3492,30.3806262 C102.357979,30.3364992 102.381023,30.3034045 102.418334,30.281341 C102.455645,30.2592776 102.502831,30.2570712 102.559895,30.274722 C102.612569,30.2879601 102.666339,30.3045075 102.721208,30.3243646 C102.776077,30.3442217 102.81229,30.3585628 102.829848,30.3673882 C102.882522,30.3938643 102.913248,30.4280622 102.922027,30.4699828 C102.930806,30.5119034 102.926417,30.5571329 102.908859,30.6056725 C102.847406,30.7645296 102.772785,30.935519 102.684995,31.1186459 C102.597205,31.3017727 102.49954,31.4826905 102.391997,31.6614047 C102.284454,31.8401189 102.167037,32.0111083 102.039741,32.174378 C101.912446,32.3376478 101.780762,32.4744393 101.644688,32.5847567 C101.62713,32.5935821 101.608475,32.5946852 101.588722,32.5880662 C101.568969,32.5814471 101.550314,32.5715187 101.532756,32.5582806 C101.515198,32.5406298 101.50203,32.5218762 101.493251,32.502019 C101.484472,32.4821619 101.484472,32.4634082 101.493251,32.4457575 Z M104.396893,30.4600543 C104.388114,30.4379908 104.390309,30.4170308 104.403477,30.3971737 C104.416646,30.3773166 104.434203,30.3585629 104.456151,30.3409121 C104.473709,30.327674 104.493461,30.3188488 104.515409,30.3144361 C104.537357,30.3100234 104.554914,30.3166423 104.568083,30.3342931 C104.704157,30.4710867 104.830354,30.6078782 104.946676,30.7446718 C105.062997,30.8814653 105.167247,31.0116379 105.259426,31.1351934 C105.351606,31.2587489 105.430616,31.3734772 105.496458,31.4793819 C105.562301,31.5852866 105.614974,31.6779518 105.65448,31.7573804 C105.689596,31.8323962 105.709348,31.9018951 105.713738,31.9658792 C105.718127,32.0298633 105.702764,32.1037748 105.667648,32.187616 C105.632532,32.2670446 105.582053,32.3420593 105.516211,32.4126624 C105.454758,32.4656147 105.391111,32.4876779 105.325268,32.4788525 C105.259426,32.4700271 105.215532,32.4281071 105.193584,32.3530913 C105.105794,32.0574407 104.996058,31.7485566 104.864373,31.4264298 C104.732688,31.1043031 104.576863,30.7821811 104.396893,30.4600543 Z" id="放心职位,只为你" fill="#3574E6"></path>
                <g id="Group-5">
                    <path d="M6.00852273,0 L19.0540037,0 C22.3724192,-6.12803734e-16 25.0625264,2.7043203 25.0625264,6.04026846 L25.0625264,19.1546746 C25.0625264,22.4906227 22.3724192,25.194943 19.0540037,25.194943 L6.00852273,25.194943 C2.69010726,25.194943 4.06388689e-16,22.4906227 0,19.1546746 L0,6.04026846 C-4.06388689e-16,2.7043203 2.69010726,6.12803734e-16 6.00852273,0 Z" id="Rectangle-3" fill="url(#linearGradient-1)"></path>
                    <g id="Group-3" transform="translate(2.685271, 3.449308)">
                        <ellipse id="Oval-3" fill="url(#linearGradient-2)" cx="14.2695544" cy="3.65144102" rx="3.63225021" ry="3.65144102"></ellipse>
                        <path d="M15.4044749,5.35016551 C15.3890358,5.35964475 15.373438,5.36895842 15.3576825,5.37810293 C14.3230712,5.97859207 13.0001187,5.62223513 12.4027856,4.58215744 C12.3936891,4.56631868 12.3848134,4.55041271 12.3761574,4.53444311 C12.3724388,4.52886296 12.3688797,4.52312057 12.3654901,4.51721856 C12.2830993,4.37375957 12.3319937,4.19031927 12.4746987,4.10749318 C12.6174037,4.02466709 12.7998799,4.07381977 12.8822707,4.21727877 L12.8837817,4.21640181 C12.8951372,4.23850389 12.9070637,4.26044845 12.9195661,4.28221764 C13.3521177,5.03537735 14.3101178,5.29342892 15.0593191,4.85859196 C15.0809739,4.84602351 15.1022172,4.83301377 15.1230443,4.81958055 L15.1239167,4.82109949 C15.2666217,4.7382734 15.4490979,4.78742608 15.5314887,4.93088507 C15.6138795,5.07434407 15.5649851,5.25778437 15.4222801,5.34061046 C15.4164091,5.34401798 15.4104708,5.34720213 15.4044749,5.35016551 Z" id="Combined-Shape" fill="#3574E6"></path>
                        <g id="Group" transform="translate(7.988055, 10.720097) rotate(30.000000) translate(-7.988055, -10.720097) translate(2.099703, 4.921439)">
                            <path d="M0.961363636,7.51077053e-16 L9.02732443,0 C9.55827091,-9.80485975e-17 9.98868807,0.432691248 9.98868807,0.966442953 L9.98868807,4.06816121 C9.98868807,4.51273273 9.68699308,4.89995603 9.25763612,5.00646101 L1.19167532,7.00727869 C0.676190186,7.13514836 0.155192867,6.81871608 0.0279952365,6.3005074 C0.00940018051,6.22475034 1.50376487e-15,6.14700819 1.49425926e-15,6.06897888 L0,0.966442953 C-6.50221902e-17,0.432691248 0.430417161,1.27831254e-15 0.961363636,7.51077053e-16 Z" id="Combined-Shape" fill="url(#linearGradient-3)"></path>
                            <path d="M10.7137263,11.5925361 L2.64776552,11.5925361 C2.11681904,11.5925361 1.68640188,11.1598449 1.68640188,10.6260931 L1.68640188,7.5243749 C1.68640188,7.07980337 1.98809687,6.69258007 2.41745384,6.58607509 L10.4834146,4.58525742 C10.9988998,4.45738774 11.5198971,4.77382002 11.6470947,5.2920287 C11.6656898,5.36778576 11.67509,5.44552792 11.67509,5.52355722 L11.67509,10.6260931 C11.67509,11.1598449 11.2446728,11.5925361 10.7137263,11.5925361 Z" id="Combined-Shape-Copy-3" fill="url(#linearGradient-2)"></path>
                        </g>
                    </g>
                </g>
            </g>
        </g>
    </g>
</svg>