<?xml version="1.0" encoding="UTF-8"?>
<svg width="149px" height="50px" viewBox="0 0 149 50" version="1.1" xmlns="http://www.w3.org/2000/svg" xmlns:xlink="http://www.w3.org/1999/xlink">
    <!-- Generator: Sketch 51.2 (57519) - http://www.bohemiancoding.com/sketch -->
    <title>Group 6 Copy@3x</title>
    <desc>Created with Sketch.</desc>
    <defs>
        <linearGradient x1="1.86418806%" y1="92.5380162%" x2="93.9226423%" y2="10.5183919%" id="linearGradient-1">
            <stop stop-color="#5D97FF" stop-opacity="0" offset="0%"></stop>
            <stop stop-color="#3574E6" offset="100%"></stop>
        </linearGradient>
        <linearGradient x1="93.9226423%" y1="10.5183919%" x2="1.86418806%" y2="92.5380162%" id="linearGradient-2">
            <stop stop-color="#5D97FF" stop-opacity="0" offset="0%"></stop>
            <stop stop-color="#3574E6" offset="100%"></stop>
        </linearGradient>
    </defs>
    <g id="微海集团" stroke="none" stroke-width="1" fill="none" fill-rule="evenodd">
        <g id="Desktop-HD" transform="translate(-230.000000, -1060.000000)">
            <g id="Group-6-Copy" transform="translate(230.000000, 1060.000000)">
                <path d="M59.2400793,2.7122268 L59.2400793,5.34922395 L57.2785748,5.34922395 L57.2785748,26.8015521 L59.2400793,26.5164713 L59.2400793,29.2603738 L57.2785748,29.5454545 L57.2785748,33.9285714 L54.4968047,33.9285714 L54.4968047,29.9018055 L44.1186624,31.3272094 L44.1186624,28.6545771 L45.5095474,28.4764016 L45.5095474,5.34922395 L44.0829987,5.34922395 L44.0829987,2.7122268 L59.2400793,2.7122268 Z M75.1817618,10.0101626 L75.1817618,19.9596136 L60.3099909,19.9596136 L60.3099909,2.56968641 L67.7353093,2.56968641 C71.8478715,2.56968641 75.1817618,5.90090107 75.1817618,10.0101626 Z M63.1274247,17.2513462 L72.3999917,17.2513462 L72.3999917,10.3374776 C72.3999917,7.54317972 70.1329463,5.27795375 67.336404,5.27795375 L63.1274247,5.27795375 L63.1274247,17.2513462 Z M48.3269812,28.0844156 L54.4968047,27.1935382 L54.4968047,21.5631929 L48.3269812,21.5631929 L48.3269812,28.0844156 Z M59.275743,33.9285714 C59.6561579,33.049568 60.0187355,32.0993082 60.3634865,31.0777637 C60.7082375,30.0562192 61.0232638,29.0109334 61.308575,27.9418752 C61.5938862,26.872817 61.8494736,25.8215921 62.075345,24.7881691 C62.3012163,23.7547462 62.4735893,22.7985473 62.5924689,21.9195439 L65.5168939,21.9195439 C65.3742383,22.9173316 65.1959215,23.9566782 64.9819381,25.0376148 C64.7679547,26.1185515 64.530199,27.1875937 64.2686637,28.2447735 C64.0071285,29.3019533 63.7277655,30.3175434 63.4305663,31.2915743 C63.1333672,32.2656051 62.8302286,33.1445954 62.5211415,33.9285714 L59.275743,33.9285714 Z M72.7566289,33.9285714 C72.6139733,33.1683522 72.4416004,32.2715446 72.239505,31.2381216 C72.0374095,30.2046987 71.8115416,29.1415956 71.5618943,28.0487805 C71.312247,26.9559654 71.0626035,25.8750449 70.8129562,24.8059867 C70.5633089,23.7369285 70.3196093,22.7747905 70.0818499,21.9195439 L72.86362,21.9195439 C73.1013794,22.7985473 73.3569668,23.7547462 73.63039,24.7881691 C73.9038132,25.8215921 74.1712884,26.872817 74.4328237,27.9418752 C74.6943589,29.0109334 74.9380586,30.0621583 75.1639299,31.0955812 C75.3898013,32.1290042 75.574062,33.0733248 75.7167176,33.9285714 L72.7566289,33.9285714 Z M48.3269812,18.9974659 L54.4968047,18.9974659 L54.4968047,13.4027558 L48.3269812,13.4027558 L48.3269812,18.9974659 Z M48.3269812,10.8370288 L54.4968047,10.8370288 L54.4968047,5.34922395 L48.3269812,5.34922395 L48.3269812,10.8370288 Z M100.467339,12.6900538 C101.014185,10.8607764 101.448089,8.99589167 101.769064,7.09534368 C102.09004,5.19479569 102.345627,3.42493693 102.535834,1.78571429 L104.853976,1.78571429 C104.806424,2.28460813 104.746985,2.78943362 104.675658,3.30020589 C104.60433,3.81097816 104.533003,4.31580365 104.461675,4.8146975 L111.98672,4.8146975 L111.98672,7.23788407 L110.881145,7.23788407 C110.619609,10.6113567 110.257032,13.6997009 109.793401,16.5030092 C109.329771,19.3063175 108.729437,21.9432882 107.992383,24.4140006 C108.53923,26.0532233 109.133619,27.6508475 109.775569,29.2069211 C110.41752,30.7629948 111.107011,32.3368625 111.844065,33.9285714 L109.026631,33.9285714 C108.62244,33.0020543 108.230143,32.0696119 107.849729,31.1312163 C107.469314,30.1928208 107.100792,29.2247437 106.744153,28.226956 C106.363738,29.2247437 105.971441,30.1928208 105.567251,31.1312163 C105.16306,32.0696119 104.723212,33.0020543 104.247693,33.9285714 L101.394595,33.9285714 C102.250529,32.2893488 103.011347,30.6976637 103.677073,29.1534685 C104.342799,27.6092732 104.937189,26.0294664 105.460259,24.4140006 C104.913413,22.6322369 104.408182,20.7792304 103.944551,18.8549256 C103.480921,16.9306207 103.058904,14.875684 102.678489,12.6900538 L100.467339,12.6900538 Z M96.7226482,33.9285714 L96.7226482,23.5772358 C96.7226482,21.9335312 95.389092,20.6010453 93.7440672,20.6010453 L92.2646833,20.6010453 L92.2646833,22.9885968 C92.2646833,24.2001961 92.2349638,25.2989339 92.175524,26.2848432 C92.1160841,27.2707525 92.0269257,28.1913166 91.9080461,29.0465632 C91.7891664,29.9018098 91.6227374,30.7273479 91.408754,31.5232024 C91.1947706,32.3190569 90.9332393,33.1208385 90.6241522,33.9285714 L87.6640635,33.9285714 C88.0920303,33.0970817 88.44272,32.2893609 88.7161432,31.5053849 C88.9895664,30.7214088 89.2035466,29.9077489 89.3580902,29.0643807 C89.5126337,28.2210126 89.6196238,27.3063876 89.6790636,26.3204783 C89.7385035,25.334569 89.7682229,24.2358312 89.7682229,23.0242319 L89.7682229,18.1065885 L94.1555208,18.1065885 C96.9520631,18.1065885 99.2191085,20.3718145 99.2191085,23.1661123 L99.2191085,31.3984796 L100.966631,31.3984796 L100.966631,33.9285714 L96.7226482,33.9285714 Z M79.5327355,20.9573963 C80.8166358,19.104362 81.9519195,17.275112 82.9386207,15.4695914 C83.9253219,13.6640708 84.703972,12.0248727 85.2745943,10.5519481 L88.234683,10.5519481 C87.8542681,11.4309515 87.467915,12.2980635 87.0756121,13.1533101 C86.6833093,14.0085567 86.2731806,14.8519122 85.8452138,15.683402 L85.8452138,33.9285714 L83.1704349,33.9285714 L83.1704349,20.137789 L82.5998154,20.9573963 L79.5327355,20.9573963 Z M91.0877805,8.23566677 L93.5129134,8.23566677 L93.5129134,1.78571429 L95.6884003,1.78571429 L95.6884003,8.23566677 L98.0778695,8.23566677 L98.0778695,3.28238834 L100.217693,3.28238834 L100.217693,10.4450428 L88.9479574,10.4450428 L88.9479574,3.28238834 L91.0877805,3.28238834 L91.0877805,8.23566677 Z M106.637162,19.9952487 C107.065129,18.1184575 107.427706,16.1407294 107.724906,14.0620051 C108.022105,11.9832807 108.265804,9.70859645 108.456012,7.23788407 L104.069374,7.23788407 C104.426013,9.6848396 104.812366,11.9476456 105.228445,14.02637 C105.644524,16.1050943 106.114092,18.0947007 106.637162,19.9952487 Z M79.7823816,10.8370288 C80.9236263,9.22156303 81.945976,7.63581709 82.8494614,6.07974343 C83.7529468,4.52366976 84.4899896,3.09234103 85.060612,1.78571429 L88.0563644,1.78571429 C87.2479827,3.51996433 86.4336693,5.11758851 85.6133996,6.57863478 C84.79313,8.03968105 83.8837143,9.45913153 82.8851251,10.8370288 L79.7823816,10.8370288 Z M100.075038,13.0464048 L100.075038,15.4695914 L89.126276,15.4695914 L89.126276,13.0464048 L100.075038,13.0464048 Z M115.410437,17.892778 C116.052387,16.6336649 116.676496,15.2973622 117.282782,13.8838296 C117.889069,12.470297 118.453738,11.0627248 118.976809,9.66107064 C119.499879,8.2594165 119.975391,6.91123549 120.403358,5.61648717 C120.831324,4.32173885 121.199846,3.15173155 121.508933,2.10643016 L124.754331,2.10643016 C124.445244,3.1754884 124.076723,4.36331307 123.648756,5.66993982 C123.220789,6.97656656 122.757166,8.30693019 122.257871,9.66107064 L122.257871,33.9285714 L119.262119,33.9285714 L119.262119,16.8949952 L118.762827,17.892778 L115.410437,17.892778 Z M124.576013,12.9751346 C124.956428,12.1911586 125.330893,11.3002901 125.69942,10.3025024 C126.067947,9.30471468 126.418637,8.28912458 126.7515,7.25570162 C127.084363,6.22227865 127.375614,5.22450592 127.625261,4.2623535 C127.874908,3.30020108 128.071057,2.47466293 128.213712,1.78571429 L131.280792,1.78571429 C131.138136,2.61720403 130.95982,3.46055955 130.745836,4.31580615 L140.861929,4.31580615 C143.987477,4.31580615 146.521233,6.84752929 146.521233,9.97056805 C146.521233,10.2215429 146.504511,10.4722394 146.471178,10.7209945 L146.188227,12.8325942 L143.192474,12.8325942 L143.569781,10.4690673 C143.828902,8.84588245 142.722053,7.32014078 141.097564,7.06122786 C140.942397,7.03649705 140.785514,7.02407349 140.628385,7.02407349 L129.996898,7.02407349 C129.664035,8.09313173 129.319289,9.14435657 128.96265,10.1777795 C128.606011,11.2112025 128.23749,12.1436449 127.857075,12.9751346 L124.576013,12.9751346 Z M133.206633,33.9285714 C133.777255,32.8595132 134.217103,31.7013841 134.52619,30.4541495 C134.835278,29.2069149 134.989819,28.0844206 134.989819,27.0866329 L134.989819,10.3737726 L138.056899,10.3737726 L138.056899,27.0866329 C138.056899,28.1081774 137.96774,29.2366109 137.789421,30.4719671 C137.611101,31.7073232 137.307963,32.8595132 136.879996,33.9285714 L133.206633,33.9285714 Z M124.93265,33.2158695 C125.241737,31.9567565 125.544876,30.4779147 125.842075,28.7793 C126.139274,27.0806852 126.418637,25.3405221 126.680172,23.5587583 C126.941708,21.7769946 127.167575,20.0487097 127.357783,18.3738518 C127.54799,16.6989938 127.678756,15.2557869 127.750084,14.0441875 L130.638845,14.0441875 C130.567517,15.3033006 130.442696,16.7880814 130.264376,18.4985746 C130.086057,20.2090678 129.87802,21.9551701 129.640261,23.7369338 C129.402502,25.5186975 129.14097,27.2469824 128.855659,28.9218404 C128.570348,30.5966983 128.285041,32.028027 127.99973,33.2158695 L124.93265,33.2158695 Z M144.262386,33.2158695 C144.048402,31.9092428 143.828478,30.4007054 143.602607,28.6902122 C143.376736,26.979719 143.168699,25.245495 142.978492,23.4874881 C142.788284,21.7294812 142.609968,20.0249528 142.443536,18.3738518 C142.277105,16.7227507 142.158227,15.3033002 142.086899,14.1154577 L144.939996,14.1154577 C145.011324,15.3033002 145.124258,16.7108724 145.278802,18.3382167 C145.433345,19.9655609 145.611662,21.658211 145.813758,23.4162179 C146.015853,25.1742248 146.235777,26.9084488 146.473536,28.618942 C146.711296,30.3294352 146.949051,31.8617291 147.186811,33.2158695 L144.262386,33.2158695 Z" id="职微你" fill="#FFFFFF"></path>
                <path d="M5.77844712,49.1854167 C6.22781795,48.8532721 6.63870909,48.5134442 7.01113286,48.1659226 C7.38355664,47.818401 7.71750187,47.4324426 8.01297858,47.0080357 C7.84061717,46.6574387 7.69749778,46.2745556 7.58361613,45.859375 C7.46973448,45.4441944 7.37893831,44.9875025 7.3112249,44.4892857 C7.07115007,44.9259942 6.82800101,45.2827367 6.58177041,45.5595238 C6.56330312,45.5779763 6.54021935,45.584127 6.51251841,45.5779762 C6.48481747,45.5718254 6.45711694,45.5579862 6.429416,45.5364583 C6.40171506,45.5149304 6.38170912,45.4887898 6.36939759,45.4580357 C6.35708606,45.4272816 6.35708606,45.3965279 6.36939759,45.3657738 C6.52944748,45.0274785 6.6756447,44.6814998 6.80799364,44.3278274 C6.94034258,43.974155 7.05730036,43.6235632 7.15887048,43.2760417 C7.2604406,42.9285201 7.34815893,42.5933052 7.42202811,42.2703869 C7.49589729,41.9474686 7.55745402,41.6476204 7.60670013,41.3708333 C7.61901166,41.2908726 7.64363435,41.2370537 7.68056894,41.209375 C7.71750353,41.1816963 7.78521593,41.1740079 7.88370817,41.1863095 C7.95142158,41.1986112 8.01605614,41.2109126 8.07761379,41.2232143 C8.13917144,41.2355159 8.203806,41.2478174 8.27151941,41.260119 C8.413102,41.3031748 8.46234738,41.4046619 8.41925703,41.5645833 C8.37001091,41.7614097 8.31614878,41.9597708 8.25766901,42.1596726 C8.19918924,42.3595744 8.13301576,42.5610109 8.05914659,42.7639881 L10.6722557,42.7639881 C10.7091903,42.7639881 10.7415076,42.7778272 10.7692085,42.805506 C10.7969094,42.8331847 10.8107597,42.8624006 10.8107597,42.8931548 L10.8107597,43.0223214 C10.8107597,43.0530756 10.7953705,43.0822915 10.7645917,43.1099702 C10.7338129,43.1376489 10.7030345,43.1514881 10.6722557,43.1514881 L10.0905388,43.1514881 C10.0166696,43.9818494 9.88124485,44.7153242 9.68426037,45.3519345 C9.4872759,45.9885448 9.22565982,46.5559499 8.89940428,47.0541667 C9.13332335,47.3309538 9.4010951,47.5800584 9.70272758,47.8014881 C10.0043601,48.0229178 10.3552334,48.2320427 10.7553581,48.428869 C10.8169157,48.4596232 10.8476941,48.4949899 10.8476941,48.5349702 C10.8476941,48.5749506 10.8323049,48.6195434 10.8015261,48.66875 C10.7461242,48.7487107 10.6768729,48.8302079 10.5937701,48.913244 C10.5106673,48.9962802 10.4229489,49.0808527 10.3306124,49.1669643 C10.262899,49.2161709 10.2028812,49.2423115 10.1505572,49.2453869 C10.0982332,49.2484623 10.0382154,49.2346232 9.97050201,49.203869 C9.656558,48.994741 9.36878031,48.7671639 9.10716031,48.521131 C8.8455403,48.275098 8.61316367,47.998315 8.41002343,47.6907738 C8.08376789,48.0598233 7.71442754,48.3873498 7.3019913,48.6733631 C6.88955506,48.9593764 6.43403529,49.2192449 5.93541834,49.4529762 C5.90463952,49.4652778 5.87540007,49.4606648 5.84769913,49.4391369 C5.81999819,49.417609 5.79691442,49.3899307 5.77844712,49.3561012 C5.75997983,49.3222717 5.7492074,49.2899803 5.74612952,49.2592262 C5.74305164,49.2284721 5.75382406,49.2038691 5.77844712,49.1854167 Z M2.34354752,49.1854167 C2.60208965,48.717954 2.80676576,48.2658752 2.95758199,47.8291667 C3.10839823,47.3924581 3.22381709,46.9588315 3.30384203,46.5282738 C3.38386698,46.0977161 3.43619019,45.6610141 3.46081325,45.2181548 C3.48543631,44.7752954 3.50082549,44.3139905 3.50698126,43.8342262 L3.50698126,43.0776786 L2.68519076,43.0776786 C2.65441194,43.0776786 2.62517249,43.0653771 2.59747155,43.0407738 C2.56977061,43.0161705 2.55592035,42.9854169 2.55592035,42.9485119 L2.55592035,42.8285714 C2.55592035,42.7978173 2.56977061,42.7686013 2.59747155,42.7409226 C2.62517249,42.7132439 2.65441194,42.6994048 2.68519076,42.6994048 L4.57807898,42.6994048 L4.55037818,42.6348214 C4.47035324,42.4072409 4.37647923,42.198116 4.26875335,42.0074405 C4.16102746,41.8167649 4.03329726,41.6168661 3.8855589,41.4077381 C3.85478008,41.3585315 3.86247467,41.307788 3.9086429,41.255506 C3.95481114,41.2032239 4.00559544,41.1832341 4.06099732,41.1955357 C4.27644909,41.2631948 4.4811252,41.3677572 4.67503179,41.5092262 C4.86893839,41.6506952 5.02436912,41.7829359 5.14132865,41.9059524 C5.20904206,41.9736114 5.24443718,42.0520333 5.24751506,42.1412202 C5.25059294,42.2304072 5.23674268,42.3180551 5.20596386,42.4041667 C5.18749656,42.4472224 5.16441279,42.4918152 5.13671185,42.5379464 C5.10901091,42.5840776 5.07053795,42.6317458 5.02129183,42.6809524 C5.0089803,42.693254 4.9997468,42.6994048 4.99359103,42.6994048 L6.64640562,42.6994048 C6.68334021,42.6994048 6.71565749,42.7132439 6.74335843,42.7409226 C6.77105938,42.7686013 6.78490964,42.7978173 6.78490964,42.8285714 L6.78490964,42.9485119 C6.78490964,42.9854169 6.77105938,43.0161705 6.74335843,43.0407738 C6.71565749,43.0653771 6.68334021,43.0776786 6.64640562,43.0776786 L4.32877175,43.0776786 L4.32877175,43.6220238 C4.32261599,43.8126994 4.31799923,43.998759 4.31492135,44.1802083 C4.31184347,44.3616577 4.30414888,44.5384912 4.29183735,44.7107143 L5.41833668,44.7107143 L5.41833668,44.6276786 C5.42449244,44.5600195 5.44911513,44.5046629 5.49220549,44.4616071 C5.53529584,44.4185514 5.58761906,44.3970238 5.64917671,44.3970238 L5.97235274,44.40625 C6.03391039,44.4124008 6.08623361,44.4354661 6.12932396,44.4754464 C6.17241432,44.5154268 6.19395917,44.5723211 6.19395917,44.646131 C6.18780341,44.9721246 6.18164773,45.2996511 6.17549197,45.6287202 C6.1693362,45.9577893 6.16010269,46.2730144 6.14779116,46.5744048 C6.13547964,46.8757952 6.12009045,47.1556535 6.10162316,47.4139881 C6.08315586,47.6723227 6.06468885,47.8937491 6.04622155,48.0782738 C6.01544273,48.3304576 5.95850276,48.5380448 5.87539993,48.7010417 C5.79229711,48.8640385 5.6214772,48.9885908 5.36293507,49.0747024 C5.2705986,49.1054565 5.18441919,49.1254464 5.10439424,49.1346726 C5.0243693,49.1438989 4.92895638,49.1546626 4.81815261,49.1669643 C4.75659496,49.1731151 4.70427175,49.1669644 4.66118139,49.1485119 C4.61809104,49.1300594 4.57807917,49.0900797 4.54114458,49.0285714 C4.50420999,48.9609124 4.47189271,48.8963297 4.44419177,48.8348214 C4.41649083,48.7733132 4.38725138,48.7087305 4.35647256,48.6410714 C4.30722644,48.5242058 4.34416047,48.4626984 4.46727577,48.4565476 L4.84585341,48.4104167 C5.0059033,48.3796625 5.11208865,48.328919 5.16441265,48.2581845 C5.21673665,48.18745 5.2552096,48.0628977 5.27983266,47.8845238 C5.31676725,47.5646809 5.34446778,47.1679587 5.36293507,46.6943452 C5.38140237,46.2207318 5.39679155,45.6825427 5.40910308,45.0797619 L4.27337015,45.0797619 C4.24259132,45.498018 4.19180703,45.8978156 4.12101573,46.2791667 C4.05022443,46.6605178 3.95019476,47.0264863 3.82092369,47.3770833 C3.69165263,47.7276803 3.52544948,48.0705836 3.32230924,48.4058036 C3.119169,48.7410235 2.86678643,49.0716254 2.56515395,49.397619 C2.54053089,49.4222223 2.51283036,49.4299108 2.48205154,49.4206845 C2.45127272,49.4114583 2.42203327,49.3945438 2.39433233,49.3699405 C2.36663139,49.3453372 2.34662545,49.3161212 2.33431392,49.2822917 C2.32200239,49.2484621 2.32508023,49.2161708 2.34354752,49.1854167 Z M7.92064257,43.1514881 C7.85908492,43.3114095 7.79598928,43.4682532 7.73135375,43.6220238 C7.66671822,43.7757944 7.5974669,43.9264874 7.52359772,44.0741071 C7.64671302,44.535419 7.77905998,44.9521311 7.92064257,45.324256 C8.06222516,45.6963808 8.22535048,46.0392841 8.41002343,46.3529762 C8.63778673,45.9162677 8.8224569,45.4365106 8.96403949,44.9136905 C9.10562208,44.3908704 9.19795717,43.8034755 9.24104752,43.1514881 L7.92064257,43.1514881 Z M25.4484005,43.2345238 C25.4484005,43.1607139 25.4730232,43.1007443 25.5222693,43.0546131 C25.5715154,43.0084819 25.6392278,42.9854167 25.7254085,42.9854167 L26.0670518,42.9854167 C26.2455689,42.9854167 26.3348262,43.0715269 26.3348262,43.24375 L26.3348262,47.3863095 C26.3348262,47.5585326 26.3409819,47.6984618 26.3532934,47.8061012 C26.3656049,47.9137406 26.3994611,47.9983132 26.454863,48.0598214 C26.5102649,48.1213297 26.5949054,48.1659225 26.708787,48.1936012 C26.8226687,48.2212799 26.9811773,48.2412698 27.1843175,48.2535714 C27.4921057,48.2658731 27.8506737,48.2674108 28.260032,48.2581845 C28.6693904,48.2489583 29.0925929,48.2289684 29.5296522,48.1982143 C29.665079,48.1920635 29.7112465,48.2535708 29.6681562,48.3827381 C29.6496889,48.4442463 29.6204494,48.5242059 29.580437,48.622619 C29.5404245,48.7210322 29.5019515,48.8040671 29.465017,48.8717262 C29.4280824,48.9393853 29.3880705,48.9870534 29.3449801,49.0147321 C29.3018898,49.0424109 29.2341774,49.0624007 29.1418409,49.0747024 C29.0310372,49.087004 28.8848399,49.0962301 28.7032449,49.102381 C28.5216498,49.1085318 28.3246683,49.1116071 28.1122944,49.1116071 L27.4705591,49.1116071 C27.2551074,49.1116071 27.0642815,49.1054564 26.8980759,49.0931548 C26.6210664,49.0808531 26.3902287,49.0454864 26.2055558,48.9870536 C26.0208828,48.9286207 25.8731467,48.8378974 25.7623429,48.714881 C25.6515392,48.5918645 25.5715154,48.4350208 25.5222693,48.2443452 C25.4730232,48.0536697 25.4484005,47.8168665 25.4484005,47.5339286 L25.4484005,43.2345238 Z M23.2969714,46.9342262 C23.2538811,46.835813 23.2431087,46.7466274 23.2646538,46.6666667 C23.286199,46.5867059 23.3308276,46.5005957 23.3985411,46.4083333 C23.6078371,46.0884905 23.7801959,45.7425118 23.9156227,45.3703869 C24.0510495,44.998262 24.1833965,44.556947 24.3126676,44.0464286 C24.3188233,44.0218253 24.3372903,44.0064484 24.3680692,44.0002976 C24.398848,43.9941468 24.4327042,43.9941468 24.4696388,44.0002976 C24.5065734,44.0064484 24.5404296,44.0187499 24.5712084,44.0372024 C24.6019872,44.0556549 24.6173764,44.0802578 24.6173764,44.1110119 C24.6358437,44.4431564 24.6343048,44.7722206 24.6127596,45.0982143 C24.5912144,45.424208 24.5527415,45.7302069 24.4973396,46.0162202 C24.4419377,46.3022336 24.3711475,46.5605643 24.2849668,46.7912202 C24.1987861,47.0218762 24.0972175,47.2048604 23.9802579,47.3401786 C23.9063887,47.4262901 23.8279039,47.4662699 23.7448011,47.460119 C23.6616983,47.4539682 23.5862913,47.4047624 23.5185779,47.3125 C23.463176,47.2448409 23.4200863,47.1817959 23.3893075,47.1233631 C23.3585286,47.0649303 23.3277503,47.0018853 23.2969714,46.9342262 Z M26.316359,41.4815476 C26.2978917,41.4630951 26.291736,41.4384922 26.2978918,41.4077381 C26.3040476,41.376984 26.3178978,41.3493057 26.339443,41.3247024 C26.3609882,41.3000991 26.3856109,41.2816469 26.4133118,41.2693452 C26.4410127,41.2570436 26.4671744,41.2539682 26.4917974,41.260119 C26.9842586,41.5553586 27.3843773,41.8290662 27.6921656,42.08125 C27.9999538,42.3334338 28.2154023,42.536408 28.3385176,42.6901786 C28.4185426,42.7762901 28.466249,42.863938 28.4816384,42.953125 C28.4970279,43.042312 28.4893333,43.1545628 28.4585544,43.289881 C28.4462429,43.3390875 28.426237,43.3959818 28.398536,43.4605655 C28.3708351,43.5251491 28.3323621,43.5912695 28.283116,43.6589286 C28.2154026,43.7634926 28.13384,43.8142361 28.0384256,43.8111607 C27.9430112,43.8080853 27.8676043,43.7542664 27.8122024,43.6497024 C27.7260217,43.4959318 27.6336866,43.3375504 27.5351943,43.1745536 C27.4367021,43.0115567 27.3274389,42.8408739 27.2074015,42.6625 C27.0873641,42.4841261 26.9550171,42.2980664 26.8103567,42.1043155 C26.6656962,41.9105645 26.5010319,41.7029773 26.316359,41.4815476 Z M29.3357465,44.2770833 C29.3172793,44.25248 29.3142014,44.2248017 29.3265129,44.1940476 C29.3388245,44.1632935 29.3572915,44.1356152 29.3819146,44.1110119 C29.4065376,44.0864086 29.4342381,44.0694941 29.465017,44.0602679 C29.4957958,44.0510416 29.5234963,44.0525793 29.5481194,44.064881 C29.7697269,44.2309532 29.9774809,44.4031737 30.1713874,44.5815476 C30.365294,44.7599215 30.5407307,44.9306043 30.6977027,45.0936012 C30.8546747,45.256598 30.9900995,45.4088287 31.1039812,45.5502976 C31.2178628,45.6917666 31.3025033,45.8086305 31.3579052,45.9008929 C31.4256186,46.0054569 31.4625526,46.1023309 31.4687084,46.1915179 C31.4748642,46.2807048 31.4533193,46.3868049 31.4040732,46.5098214 C31.3856059,46.559028 31.3594443,46.61746 31.3255876,46.685119 C31.2917309,46.7527781 31.2440244,46.8204362 31.1824668,46.8880952 C31.0901303,46.9803576 30.9962563,47.0203374 30.9008419,47.0080357 C30.8054276,46.9957341 30.7330984,46.9311514 30.6838523,46.8142857 C30.5422697,46.4759904 30.3652941,46.0961827 30.1529202,45.6748512 C29.9405464,45.2535197 29.6681578,44.7876018 29.3357465,44.2770833 Z M43.7425473,47.7553571 C43.72408,47.6692456 43.7271579,47.6015875 43.7517809,47.552381 C43.776404,47.5031744 43.8348829,47.4724207 43.9272193,47.460119 L44.3796658,47.3770833 L44.3796658,42.0720238 L43.9641537,42.0720238 C43.9333749,42.0720238 43.9025965,42.0597223 43.8718177,42.035119 C43.8410389,42.0105157 43.8256497,41.9828375 43.8256497,41.9520833 L43.8256497,41.8321429 C43.8256497,41.8013887 43.8410389,41.7721728 43.8718177,41.744494 C43.9025965,41.7168153 43.9333749,41.7029762 43.9641537,41.7029762 L47.4636885,41.7029762 C47.5067789,41.7029762 47.542174,41.7168153 47.569875,41.744494 C47.5975759,41.7721728 47.6114262,41.8013887 47.6114262,41.8321429 L47.6114262,41.9520833 C47.6114262,41.9828375 47.5975759,42.0105157 47.569875,42.035119 C47.542174,42.0597223 47.5098567,42.0720238 47.4729221,42.0720238 L46.9927749,42.0720238 L46.9927749,46.8880952 L47.6483606,46.7589286 C47.7222297,46.7527777 47.7714751,46.7896821 47.7960982,46.8696429 C47.826877,46.9619052 47.80841,47.0234125 47.7406966,47.0541667 C47.6606716,47.0849208 47.5560252,47.1264382 47.4267541,47.1787202 C47.2974831,47.2310022 47.1528248,47.2848212 46.9927749,47.3401786 L46.9927749,49.1485119 C46.9927749,49.2223218 46.97123,49.2792161 46.9281397,49.3191964 C46.8850493,49.3591768 46.8358039,49.3791667 46.7804021,49.3791667 L46.4479924,49.3791667 C46.3925905,49.3791667 46.3418062,49.3591768 46.295638,49.3191964 C46.2494698,49.2792161 46.226386,49.2223218 46.226386,49.1485119 L46.226386,47.6077381 C46.0355573,47.6753972 45.8431925,47.7415175 45.6492859,47.8061012 C45.4553793,47.8706848 45.2691702,47.9321922 45.0906531,47.990625 C44.9121359,48.0490578 44.7443938,48.1028767 44.5874218,48.1520833 C44.4304498,48.2012899 44.2965639,48.2412697 44.1857602,48.2720238 C44.0811122,48.3027779 44.008783,48.3104663 43.9687705,48.2950893 C43.9287581,48.2797122 43.8933629,48.2289687 43.8625841,48.1428571 C43.8318053,48.0874997 43.8071826,48.0259924 43.7887153,47.9583333 C43.770248,47.8906743 43.7548588,47.8230162 43.7425473,47.7553571 Z M50.8154857,41.8321429 C50.8154857,41.758333 50.8385695,41.7014387 50.8847377,41.6614583 C50.930906,41.621478 50.9816903,41.6014881 51.0370922,41.6014881 L51.4064362,41.6014881 C51.4618381,41.6014881 51.5126224,41.621478 51.5587906,41.6614583 C51.6049589,41.7014387 51.6280426,41.758333 51.6280426,41.8321429 L51.6280426,45.8270833 C51.6280426,45.9008932 51.6064978,45.9577875 51.5634074,45.9977679 C51.5203171,46.0377482 51.4679938,46.0577381 51.4064362,46.0577381 L51.0370922,46.0577381 C50.9816903,46.0577381 50.930906,46.0377482 50.8847377,45.9977679 C50.8385695,45.9577875 50.8154857,45.9008932 50.8154857,45.8270833 L50.8154857,45.6333333 L48.7102247,45.6333333 L48.7102247,45.8363095 C48.7102247,45.9101194 48.6886798,45.9670137 48.6455895,46.006994 C48.6024991,46.0469744 48.5501759,46.0669643 48.4886183,46.0669643 L48.1285078,46.0669643 C48.0731059,46.0669643 48.0223216,46.0469744 47.9761534,46.006994 C47.9299852,45.9670137 47.9069014,45.9101194 47.9069014,45.8363095 L47.9069014,41.8229167 C47.9069014,41.7552576 47.9299852,41.7014387 47.9761534,41.6614583 C48.0223216,41.621478 48.0731059,41.6014881 48.1285078,41.6014881 L48.4886183,41.6014881 C48.5440201,41.6014881 48.5948044,41.621478 48.6409727,41.6614583 C48.6871409,41.7014387 48.7102247,41.7552576 48.7102247,41.8229167 L48.7102247,41.8598214 L50.8154857,41.8598214 L50.8154857,41.8321429 Z M48.7102247,45.2642857 L50.8154857,45.2642857 L50.8154857,42.2380952 L48.7102247,42.2380952 L48.7102247,45.2642857 Z M47.2328485,49.1854167 C47.5467925,48.7487081 47.819181,48.3104685 48.0500222,47.8706845 C48.2808634,47.4309006 48.476306,46.9865102 48.6363559,46.5375 C48.6671347,46.4513885 48.7071466,46.3991072 48.7563927,46.3806548 C48.8056388,46.3622023 48.8702734,46.368353 48.9502983,46.3991071 L49.3196424,46.5467262 C49.4058231,46.5959328 49.4550684,46.6466763 49.46738,46.6989583 C49.4796915,46.7512403 49.4643023,46.8204361 49.421212,46.9065476 C49.3288755,47.0910724 49.2149956,47.2971219 49.0795687,47.5247024 C48.9441419,47.7522829 48.7902501,47.9783223 48.6178887,48.2028274 C48.4455273,48.4273325 48.2608571,48.6441458 48.0638726,48.8532738 C47.8668881,49.0624018 47.6637509,49.2407731 47.4544549,49.3883929 C47.3928973,49.4252978 47.3282627,49.4160717 47.2605493,49.3607143 C47.2051474,49.3053569 47.1959139,49.2469249 47.2328485,49.1854167 Z M50.1691337,46.6389881 C50.1321991,46.5897815 50.1506661,46.5375003 50.2245353,46.4821429 C50.2799371,46.4267854 50.3322604,46.4175593 50.3815065,46.4544643 C50.5477121,46.5897824 50.7169931,46.7435507 50.8893545,46.9157738 C51.061716,47.0879969 51.2233024,47.2617551 51.3741186,47.4370536 C51.5249348,47.6123521 51.6588207,47.7799595 51.7757802,47.939881 C51.8927398,48.0998024 51.9789192,48.2320431 52.0343211,48.3366071 C52.0835672,48.410417 52.1112677,48.4903766 52.1174235,48.5764881 C52.1235792,48.6625996 52.1020344,48.7610114 52.0527883,48.8717262 C52.0281652,48.9393853 51.9927701,49.0101187 51.9466019,49.0839286 C51.9004336,49.1577385 51.855805,49.2161704 51.8127146,49.2592262 C51.7388455,49.3268853 51.6572828,49.3561012 51.5680242,49.346875 C51.4787656,49.3376488 51.4095143,49.2653777 51.3602682,49.1300595 C51.2925548,48.9639873 51.2156089,48.7794653 51.1294282,48.5764881 C51.0432475,48.3735109 50.9493735,48.1628483 50.8478033,47.944494 C50.7462332,47.7261398 50.63697,47.5047134 50.5200105,47.2802083 C50.403051,47.0557032 50.2860932,46.8419653 50.1691337,46.6389881 Z M45.1368211,43.5758929 L46.226386,43.5758929 L46.226386,42.0720238 L45.1368211,42.0720238 L45.1368211,43.5758929 Z M45.1368211,45.375 L46.226386,45.375 L46.226386,43.9357143 L45.1368211,43.9357143 L45.1368211,45.375 Z M45.1368211,47.2386905 L46.226386,47.0264881 L46.226386,45.7348214 L45.1368211,45.7348214 L45.1368211,47.2386905 Z M64.2527584,45.6794643 C64.7267523,44.9229129 65.1114818,44.1817497 65.4069585,43.4559524 C65.7024352,42.7301551 65.9301951,42.0289716 66.090245,41.352381 C66.1210238,41.2047612 66.2225924,41.1524799 66.3949538,41.1955357 C66.468823,41.2139882 66.5473078,41.2370534 66.6304107,41.2647321 C66.7135135,41.2924109 66.779687,41.3154761 66.8289331,41.3339286 C66.9643599,41.3831352 67.0074496,41.4784715 66.9582035,41.6199405 C66.841244,41.952085 66.7150527,42.2811492 66.5796258,42.6071429 C66.444199,42.9331366 66.2964629,43.2529746 66.136413,43.5666667 C66.2349052,43.6097224 66.2841506,43.6866066 66.2841506,43.7973214 L66.2841506,49.1577381 C66.2841506,49.2253972 66.2610668,49.2807538 66.2148986,49.3238095 C66.1687304,49.3668653 66.1179461,49.3883929 66.0625442,49.3883929 L65.6839665,49.3883929 C65.6285647,49.3883929 65.5777804,49.3668653 65.5316121,49.3238095 C65.4854439,49.2807538 65.4623601,49.2253972 65.4623601,49.1577381 L65.4623601,44.7199405 C65.1484161,45.1812523 64.812932,45.5779745 64.4558976,45.910119 C64.4374303,45.9285715 64.4112687,45.9331846 64.377412,45.9239583 C64.3435553,45.9147321 64.3143158,45.8978176 64.2896928,45.8732143 C64.2650697,45.848611 64.2481416,45.8178573 64.238908,45.7809524 C64.2296743,45.7440474 64.2342911,45.7102184 64.2527584,45.6794643 Z M66.6719619,48.6502976 C66.6719619,48.6195435 66.6842732,48.5903275 66.7088963,48.5626488 C66.7335193,48.5349701 66.7642977,48.521131 66.8012323,48.521131 L69.7744518,48.521131 C70.0453055,47.678468 70.2653708,46.8804105 70.4346543,46.1269345 C70.6039378,45.3734585 70.731668,44.7076418 70.8178487,44.1294643 C70.8301603,44.0433527 70.8655554,43.9833831 70.9240352,43.9495536 C70.9825149,43.915724 71.0517662,43.9080356 71.1317912,43.9264881 L71.5842376,44.0372024 C71.6704183,44.0679565 71.7242805,44.1094739 71.7458256,44.161756 C71.7673708,44.214038 71.7719876,44.2740076 71.759676,44.3416667 C71.6919626,44.6246046 71.5965497,44.9598195 71.4734344,45.3473214 C71.3503191,45.7348234 71.2148943,46.1269325 71.067156,46.5236607 C70.9194176,46.9203889 70.7670647,47.2971212 70.6100927,47.653869 C70.4531207,48.0106169 70.3100013,48.2997013 70.1807303,48.521131 L72.5168313,48.521131 C72.5599217,48.521131 72.5937779,48.5349701 72.6184009,48.5626488 C72.643024,48.5903275 72.6553354,48.6195435 72.6553354,48.6502976 L72.6553354,48.8071429 C72.6553354,48.837897 72.6414851,48.8655753 72.6137841,48.8901786 C72.5860832,48.9147819 72.5568438,48.9270833 72.5260649,48.9270833 L66.8012323,48.9270833 C66.7150516,48.9270833 66.6719619,48.8871036 66.6719619,48.8071429 L66.6719619,48.6502976 Z M68.7587557,41.4077381 C68.7464442,41.3892856 68.7449053,41.3646827 68.7541389,41.3339286 C68.7633725,41.3031744 68.7787617,41.2754962 68.8003069,41.2508929 C68.8218521,41.2262896 68.8464748,41.2078374 68.8741757,41.1955357 C68.9018767,41.1832341 68.9311161,41.1832341 68.9618949,41.1955357 C69.1650352,41.3000997 69.3666334,41.420039 69.5666958,41.5553571 C69.7667582,41.6906753 69.9160332,41.8167653 70.0145254,41.933631 C70.0883946,42.0197425 70.1284065,42.1027774 70.1345623,42.1827381 C70.140718,42.2626988 70.1253288,42.3457337 70.0883943,42.4318452 C70.0576154,42.5056551 70.0237592,42.5687001 69.9868246,42.6209821 C69.9498901,42.6732642 69.9068003,42.7240077 69.8575542,42.7732143 C69.8206196,42.8101192 69.7898413,42.8316468 69.7652182,42.8377976 L72.3321593,42.8377976 C72.3752497,42.8377976 72.4091059,42.8500991 72.4337289,42.8747024 C72.458352,42.8993057 72.4706633,42.926984 72.4706633,42.9577381 L72.4706633,43.1053571 C72.4706633,43.1422621 72.4568131,43.1730157 72.4291121,43.197619 C72.4014112,43.2222223 72.3721717,43.2345238 72.3413929,43.2345238 L67.0967075,43.2345238 C67.0659287,43.2345238 67.0366892,43.2222223 67.0089883,43.197619 C66.9812874,43.1730157 66.9674371,43.1422621 66.9674371,43.1053571 L66.9674371,42.9577381 C66.9674371,42.926984 66.9812874,42.8993057 67.0089883,42.8747024 C67.0366892,42.8500991 67.0659287,42.8377976 67.0967075,42.8377976 L69.4974438,42.8377976 C69.4420419,42.8008927 69.4051079,42.7516868 69.3866406,42.6901786 C69.3189272,42.4933522 69.2327477,42.285765 69.1280997,42.0674107 C69.0234517,41.8490564 68.9003383,41.6291678 68.7587557,41.4077381 Z M67.5214532,44.064881 C67.5152974,44.0402777 67.522992,44.014137 67.5445372,43.9864583 C67.5660823,43.9587796 67.5937829,43.9372521 67.6276396,43.921875 C67.6614963,43.9064979 67.6968914,43.8988095 67.733826,43.8988095 C67.7707606,43.8988095 67.8015389,43.9172617 67.826162,43.9541667 C67.9739003,44.1755963 68.1200976,44.4139372 68.264758,44.6691964 C68.4094185,44.9244556 68.5433044,45.175098 68.6664197,45.421131 C68.789535,45.6671639 68.8957203,45.8993541 68.9849789,46.1177083 C69.0742375,46.3360626 69.1373332,46.5190469 69.1742678,46.6666667 C69.2235139,46.8327389 69.2465976,46.968055 69.2435198,47.072619 C69.2404419,47.1771831 69.2142803,47.2848209 69.1650341,47.3955357 C69.1465669,47.4508931 69.1188663,47.5031744 69.0819317,47.552381 C69.0449972,47.6015875 69.011141,47.6446427 68.9803621,47.6815476 C68.8818699,47.7861116 68.7741456,47.8276291 68.6571861,47.8061012 C68.5402266,47.7845733 68.4725142,47.7030761 68.4540469,47.5616071 C68.3740219,47.1064461 68.2586031,46.5805585 68.1077868,45.9839286 C67.9569706,45.3872986 67.761528,44.7476225 67.5214532,44.064881 Z M85.2154159,49.83125 C85.1907928,49.7943451 85.1815593,49.7543653 85.1877151,49.7113095 C85.2123382,49.6682538 85.2492722,49.6344247 85.2985183,49.6098214 C85.6001508,49.4068442 85.7540426,49.1208352 85.7601984,48.7517857 L85.4554895,48.7517857 C85.3139069,48.7456349 85.2400389,48.6718261 85.2338831,48.5303571 L85.2338831,47.9767857 C85.2277273,47.9091266 85.2492722,47.8506947 85.2985183,47.8014881 C85.3416087,47.770734 85.3939319,47.7553571 85.4554895,47.7553571 L86.0095056,47.7553571 C86.0710632,47.7553571 86.1233865,47.770734 86.1664768,47.8014881 C86.2157229,47.8506947 86.2372678,47.9091266 86.231112,47.9767857 L86.231112,48.622619 C86.231112,48.8871045 86.1726331,49.1392845 86.0556736,49.3791667 C85.9387141,49.612898 85.7694331,49.79742 85.5478255,49.9327381 C85.4985794,49.969643 85.4462562,49.9880952 85.3908543,49.9880952 C85.3416082,49.9819444 85.3046742,49.9604169 85.2800511,49.9235119 L85.2154159,49.83125 Z M105.097742,41.7767857 C105.097742,41.7091266 105.119287,41.6537701 105.162377,41.6107143 C105.205468,41.5676585 105.257791,41.546131 105.319349,41.546131 L105.744094,41.546131 C105.799496,41.546131 105.85028,41.5661208 105.896449,41.6061012 C105.942617,41.6460815 105.965701,41.7029758 105.965701,41.7767857 L105.965701,45.9654762 C105.965701,46.0392861 105.942617,46.0961804 105.896449,46.1361607 C105.85028,46.1761411 105.799496,46.196131 105.744094,46.196131 L105.319349,46.196131 C105.263947,46.196131 105.213162,46.1761411 105.166994,46.1361607 C105.120826,46.0961804 105.097742,46.0392861 105.097742,45.9654762 L105.097742,45.7994048 L100.711782,45.7994048 L100.711782,46.002381 C100.711782,46.07004 100.690237,46.1238589 100.647146,46.1638393 C100.604056,46.2038196 100.551733,46.2238095 100.490175,46.2238095 L100.06543,46.2238095 C100.010028,46.2238095 99.9592433,46.2038196 99.9130751,46.1638393 C99.8669069,46.1238589 99.8438231,46.07004 99.8438231,46.002381 L99.8438231,41.7952381 C99.8438231,41.727579 99.8669069,41.6722224 99.9130751,41.6291667 C99.9592433,41.5861109 100.010028,41.5645833 100.06543,41.5645833 L100.490175,41.5645833 C100.545577,41.5645833 100.596361,41.5861109 100.64253,41.6291667 C100.688698,41.6722224 100.711782,41.727579 100.711782,41.7952381 L100.711782,41.8044643 L105.097742,41.8044643 L105.097742,41.7767857 Z M100.711782,45.4119048 L105.097742,45.4119048 L105.097742,42.2011905 L100.711782,42.2011905 L100.711782,45.4119048 Z M98.7080902,49.1116071 C99.2928878,48.6748986 99.8007308,48.2535735 100.231634,47.847619 C100.662538,47.4416646 101.007256,47.0264902 101.265798,46.6020833 C101.315044,46.5282734 101.373523,46.486756 101.441236,46.4775298 C101.508949,46.4683035 101.573584,46.4821427 101.635142,46.5190476 C101.715167,46.5682542 101.793651,46.6189978 101.870599,46.6712798 C101.947546,46.7235618 102.010641,46.7743053 102.059887,46.8235119 C102.115289,46.8727185 102.141451,46.9280751 102.138373,46.9895833 C102.135295,47.0510916 102.115289,47.1064482 102.078355,47.1556548 C101.930616,47.3340287 101.741329,47.5277767 101.510488,47.7369048 C101.279647,47.9460328 101.022648,48.1520823 100.739482,48.3550595 C100.456317,48.5580367 100.15315,48.7502471 99.8299727,48.9316964 C99.506795,49.1131457 99.1851611,49.2684517 98.8650614,49.397619 C98.8342826,49.4099207 98.8050431,49.4053076 98.7773422,49.3837798 C98.7496412,49.3622519 98.7265575,49.3345736 98.7080902,49.300744 C98.6896229,49.2669145 98.6788504,49.2315478 98.6757726,49.1946429 C98.6726947,49.1577379 98.6834671,49.1300596 98.7080902,49.1116071 Z M103.75887,46.8142857 C103.740403,46.7958332 103.735786,46.7681549 103.74502,46.73125 C103.754253,46.6943451 103.769642,46.6589783 103.791188,46.6251488 C103.812733,46.5913193 103.840433,46.563641 103.87429,46.5421131 C103.908147,46.5205852 103.943542,46.5190475 103.980476,46.5375 C104.239018,46.6851198 104.496018,46.8388881 104.751482,46.9988095 C105.006946,47.158731 105.245479,47.3171123 105.467086,47.4739583 C105.688694,47.6308044 105.887214,47.783035 106.062653,47.9306548 C106.238093,48.0782745 106.371979,48.2105153 106.464315,48.327381 C106.58743,48.4688499 106.627442,48.6349197 106.584352,48.8255952 C106.565885,48.9117068 106.541262,48.993204 106.510483,49.0700893 C106.479704,49.1469746 106.445848,49.2100196 106.408913,49.2592262 C106.328889,49.369941 106.238092,49.4252976 106.136522,49.4252976 C106.034952,49.4252976 105.944156,49.3668657 105.864131,49.25 C105.537875,48.794839 105.207008,48.3735138 104.871519,47.9860119 C104.53603,47.59851 104.16515,47.2079385 103.75887,46.8142857 Z M119.301404,49.1577381 C119.836955,48.7825378 120.303247,48.4027301 120.700294,48.0183036 C121.097341,47.633877 121.431286,47.226391 121.70214,46.7958333 C121.972994,46.3652756 122.188442,45.902433 122.348492,45.4072917 C122.508542,44.9121503 122.616266,44.3693482 122.671668,43.778869 L119.615346,43.778869 C119.529165,43.778869 119.486076,43.7388893 119.486076,43.6589286 L119.486076,43.5020833 C119.486076,43.4713292 119.498387,43.4436509 119.52301,43.4190476 C119.547633,43.3944443 119.578411,43.3821429 119.615346,43.3821429 L122.699369,43.3821429 C122.705525,43.3513887 122.708602,43.3021829 122.708602,43.2345238 L122.782471,41.4261905 C122.788627,41.3585314 122.814789,41.3016371 122.860957,41.255506 C122.907125,41.2093748 122.967143,41.1863095 123.041012,41.1863095 L123.484225,41.2232143 C123.631963,41.2416668 123.699676,41.327777 123.687364,41.4815476 L123.604262,43.2806548 C123.604262,43.2991072 123.602723,43.3175594 123.599645,43.3360119 C123.596567,43.3544644 123.595028,43.3698412 123.595028,43.3821429 L126.263539,43.3821429 L126.263539,43.1883929 C126.263539,43.1207338 126.286623,43.0638395 126.332791,43.0177083 C126.378959,42.9715772 126.435899,42.9485119 126.503612,42.9485119 L126.956059,42.9485119 C127.017617,42.9546627 127.06994,42.9808033 127.11303,43.0269345 C127.15612,43.0730657 127.177665,43.1330353 127.177665,43.2068452 C127.17151,43.6866095 127.162276,44.1679043 127.149965,44.650744 C127.137653,45.1335838 127.122264,45.5902756 127.103797,46.0208333 C127.085329,46.451391 127.063784,46.8373495 127.039161,47.1787202 C127.014538,47.520091 126.989916,47.7922609 126.965293,47.9952381 C126.946825,48.173612 126.920664,48.3319934 126.886807,48.4703869 C126.85295,48.6087805 126.803705,48.7287197 126.739069,48.8302083 C126.674434,48.9316969 126.589793,49.0178072 126.485145,49.0885417 C126.380497,49.1592761 126.24815,49.2161704 126.0881,49.2592262 C125.977297,49.2899803 125.855722,49.3145832 125.723373,49.3330357 C125.591024,49.3514882 125.441749,49.3637897 125.275544,49.3699405 C125.201674,49.3699405 125.144734,49.3622521 125.104722,49.346875 C125.064709,49.3314979 125.023159,49.2899805 124.980068,49.2223214 C124.936978,49.1546624 124.89081,49.0716275 124.841564,48.9732143 C124.792318,48.8748011 124.752306,48.7979169 124.721527,48.7425595 C124.65997,48.619543 124.696904,48.5488096 124.832331,48.5303571 L125.469449,48.4657738 C125.672589,48.4288689 125.817248,48.3688992 125.903428,48.2858631 C125.989609,48.202827 126.048088,48.0536717 126.078867,47.8383929 C126.097334,47.6846222 126.11734,47.4662713 126.138885,47.1833333 C126.16043,46.9003954 126.180436,46.577482 126.198904,46.2145833 C126.217371,45.8516847 126.23276,45.4611132 126.245072,45.0428571 C126.257383,44.6246011 126.263539,44.2032759 126.263539,43.778869 L123.567327,43.778869 C123.50577,44.4308564 123.39189,45.0244021 123.225684,45.5595238 C123.059478,46.0946455 122.817868,46.5882418 122.500846,47.0403274 C122.183825,47.492413 121.779089,47.9152758 121.286628,48.3089286 C120.794167,48.7025813 120.190911,49.0839267 119.476842,49.4529762 C119.446063,49.4652778 119.415285,49.4606648 119.384506,49.4391369 C119.353727,49.417609 119.327566,49.3899307 119.30602,49.3561012 C119.284475,49.3222717 119.270625,49.2853673 119.264469,49.2453869 C119.258313,49.2054065 119.270625,49.1761906 119.301404,49.1577381 Z M123.659663,45.2366071 C123.641196,45.2120038 123.636579,45.1843256 123.645813,45.1535714 C123.655047,45.1228173 123.670436,45.095139 123.691981,45.0705357 C123.713526,45.0459324 123.738149,45.0259425 123.76585,45.0105655 C123.793551,44.9951884 123.82279,44.9936507 123.853569,45.0059524 C124.222915,45.2335329 124.523004,45.4457331 124.753845,45.6425595 C124.984686,45.8393859 125.152428,46.008531 125.257076,46.15 C125.355569,46.2791673 125.374036,46.436011 125.312478,46.6205357 C125.287855,46.6881948 125.257077,46.7543152 125.220142,46.8188988 C125.183207,46.8834825 125.140118,46.934226 125.090872,46.971131 C125.023158,47.03879 124.94929,47.068006 124.869265,47.0587798 C124.78924,47.0495535 124.724606,46.9926593 124.675359,46.8880952 C124.533777,46.5928557 124.379885,46.3083843 124.213679,46.0346726 C124.047474,45.7609609 123.862804,45.4949418 123.659663,45.2366071 Z M120.289399,41.6291667 C120.270932,41.6107142 120.266315,41.5876489 120.275549,41.5599702 C120.284782,41.5322915 120.298632,41.5046132 120.3171,41.4769345 C120.335567,41.4492558 120.358651,41.4292659 120.386352,41.4169643 C120.414053,41.4046626 120.440214,41.4015873 120.464837,41.4077381 C120.80956,41.5738104 121.092721,41.7337294 121.314329,41.8875 C121.535936,42.0412706 121.702139,42.1796621 121.812943,42.3026786 C121.917591,42.4133934 121.942214,42.561011 121.886812,42.7455357 C121.862189,42.8131948 121.834488,42.8762398 121.80371,42.9346726 C121.772931,42.9931055 121.735997,43.0407736 121.692906,43.0776786 C121.631349,43.1391868 121.562097,43.1668651 121.48515,43.1607143 C121.408203,43.1545635 121.345108,43.1053576 121.295861,43.0130952 C121.215837,42.8777771 121.138891,42.7501494 121.065021,42.6302083 C120.991152,42.5102673 120.914206,42.3964787 120.834181,42.2888393 C120.754156,42.1811999 120.669516,42.073562 120.580257,41.9659226 C120.490999,41.8582832 120.394047,41.7460323 120.289399,41.6291667 Z M139.830082,45.522619 C140.322543,44.7968218 140.714967,44.0879499 141.007366,43.3959821 C141.299765,42.7040144 141.535219,42.0228208 141.713737,41.352381 C141.732204,41.2847219 141.769138,41.2370537 141.82454,41.209375 C141.879942,41.1816963 141.944576,41.1770832 142.018445,41.1955357 L142.452425,41.3339286 C142.594007,41.3954368 142.640175,41.4938485 142.590929,41.6291667 C142.467813,41.9613112 142.337005,42.2857623 142.198501,42.6025298 C142.059996,42.9192972 141.910721,43.2252961 141.750671,43.5205357 C141.793761,43.5328374 141.830695,43.558978 141.861474,43.5989583 C141.892253,43.6389387 141.907642,43.6866069 141.907642,43.7419643 L141.907642,49.1392857 C141.907642,49.2069448 141.884558,49.2623014 141.83839,49.3053571 C141.792222,49.3484129 141.741438,49.3699405 141.686036,49.3699405 L141.316692,49.3699405 C141.26129,49.3699405 141.210506,49.3499506 141.164337,49.3099702 C141.118169,49.2699899 141.095085,49.2130956 141.095085,49.1392857 L141.095085,44.5723214 C140.935035,44.7876003 140.767293,44.9951875 140.591854,45.1950893 C140.416415,45.3949911 140.230206,45.5810507 140.033221,45.7532738 C140.014754,45.7717263 139.988592,45.7763393 139.954736,45.7671131 C139.920879,45.7578869 139.891639,45.7409723 139.867016,45.716369 C139.842393,45.6917657 139.825465,45.6610121 139.816232,45.6241071 C139.806998,45.5872022 139.811615,45.5533732 139.830082,45.522619 Z M146.579844,44.1848214 C146.684492,43.9572409 146.782983,43.7281262 146.87532,43.4974702 C146.967656,43.2668143 147.050758,43.0530764 147.124627,42.85625 L144.243743,42.85625 C144.05907,43.206847 143.845161,43.551288 143.602008,43.8895833 C143.358855,44.2278787 143.080311,44.5384906 142.766367,44.8214286 C142.741744,44.839881 142.714043,44.8460318 142.683265,44.839881 C142.652486,44.8337301 142.623246,44.8183533 142.595545,44.79375 C142.567844,44.7691467 142.547839,44.7430061 142.535527,44.7153274 C142.523215,44.6876487 142.526293,44.6584327 142.544761,44.6276786 C142.914107,44.0125961 143.209579,43.4375027 143.431186,42.902381 C143.652794,42.3672592 143.825153,41.8598238 143.948268,41.3800595 C143.985203,41.2385906 144.083693,41.1770832 144.243743,41.1955357 L144.668489,41.30625 C144.736202,41.3247025 144.779292,41.3631445 144.797759,41.4215774 C144.816227,41.4800102 144.813149,41.5430552 144.788526,41.6107143 C144.73928,41.7460324 144.685417,41.8844239 144.626938,42.0258929 C144.568458,42.1673618 144.505362,42.311904 144.437649,42.4595238 L147.272364,42.4595238 L147.318532,42.321131 C147.367778,42.1304554 147.49397,42.0781742 147.69711,42.1642857 C147.770979,42.1950398 147.837153,42.2257935 147.895632,42.2565476 C147.954112,42.2873017 148.011052,42.3180554 148.066454,42.3488095 C148.146479,42.3980161 148.191108,42.4549104 148.200341,42.519494 C148.209575,42.5840777 148.189569,42.6532734 148.140323,42.7270833 C148.066454,42.8377982 147.977196,42.9685012 147.872548,43.1191964 C147.7679,43.2698916 147.655559,43.4221222 147.535522,43.5758929 C147.415485,43.7296635 147.29391,43.8757434 147.170795,44.0141369 C147.047679,44.1525305 146.930722,44.2678567 146.819918,44.360119 C146.795295,44.3785715 146.767594,44.3847223 146.736816,44.3785714 C146.706037,44.3724206 146.676797,44.3585815 146.649096,44.3370536 C146.621395,44.3155257 146.599851,44.2909228 146.584461,44.263244 C146.569072,44.2355653 146.567533,44.2094247 146.579844,44.1848214 Z M144.00367,48.8532738 C143.979047,48.8040672 143.972891,48.7594744 143.985202,48.719494 C143.997514,48.6795137 144.040604,48.6564484 144.114473,48.6502976 L144.613087,48.5949405 C144.723891,48.5641864 144.81007,48.5134428 144.871628,48.4427083 C144.933186,48.3719739 144.963964,48.2504969 144.963964,48.0782738 L144.963964,44.1479167 C144.963964,44.0618051 144.98397,43.9956848 145.023983,43.9495536 C145.063995,43.9034224 145.136324,43.8803571 145.240972,43.8803571 L145.499513,43.8803571 C145.610317,43.8803571 145.685724,43.9064978 145.725736,43.9587798 C145.765749,44.0110618 145.785755,44.0741068 145.785755,44.1479167 L145.785755,48.2535714 C145.785755,48.5180569 145.747282,48.7394832 145.670335,48.9178571 C145.593388,49.0962311 145.431801,49.2223211 145.185571,49.296131 C145.050144,49.3391867 144.847007,49.3699404 144.576153,49.3883929 C144.483816,49.4006945 144.414565,49.3960815 144.368397,49.3745536 C144.322229,49.3530257 144.2776,49.3084329 144.23451,49.2407738 C144.197575,49.1854164 144.156024,49.119296 144.109856,49.0424107 C144.063688,48.9655254 144.028293,48.9024804 144.00367,48.8532738 Z M142.332388,48.0136905 C142.486282,47.7369034 142.623246,47.4785726 142.743283,47.2386905 C142.86332,46.9988083 142.969506,46.7635428 143.061842,46.5328869 C143.154179,46.302231 143.238819,46.0731162 143.315766,45.8455357 C143.392713,45.6179552 143.465043,45.381152 143.532756,45.135119 C143.545067,45.0736108 143.577385,45.0274803 143.629709,44.9967262 C143.682033,44.9659721 143.748206,44.9628967 143.828231,44.9875 C143.9021,45.0059525 143.977507,45.0290177 144.054454,45.0566964 C144.131401,45.0843751 144.182186,45.104365 144.206809,45.1166667 C144.280678,45.1535716 144.323768,45.2012398 144.336079,45.2596726 C144.348391,45.3181055 144.342235,45.3811505 144.317612,45.4488095 C144.231431,45.6702392 144.126785,45.9085801 144.00367,46.1638393 C143.880554,46.4190985 143.743591,46.6712785 143.592774,46.9203869 C143.441958,47.1694953 143.277294,47.4078362 143.098777,47.6354167 C142.92026,47.8629972 142.735589,48.0536699 142.544761,48.2074405 C142.520138,48.2197421 142.493976,48.2212798 142.466275,48.2120536 C142.438574,48.2028273 142.412412,48.1889882 142.387789,48.1705357 C142.363166,48.1459324 142.344699,48.1197918 142.332388,48.0921131 C142.320076,48.0644344 142.320076,48.0382938 142.332388,48.0136905 Z M146.404406,45.2458333 C146.392094,45.2150792 146.395172,45.1858632 146.413639,45.1581845 C146.432107,45.1305058 146.456729,45.1043652 146.487508,45.0797619 C146.512131,45.0613094 146.539832,45.049008 146.570611,45.0428571 C146.60139,45.0367063 146.626012,45.0459324 146.64448,45.0705357 C146.835308,45.2612113 147.012284,45.451884 147.175412,45.6425595 C147.338539,45.8332351 147.484737,46.0146817 147.614008,46.1869048 C147.743279,46.3591278 147.854081,46.5190469 147.946417,46.6666667 C148.038754,46.8142865 148.112622,46.9434518 148.168024,47.0541667 C148.21727,47.1587307 148.24497,47.2556047 148.251126,47.3447917 C148.257282,47.4339786 148.235737,47.5370034 148.186491,47.653869 C148.137245,47.7645839 148.066455,47.8691463 147.974118,47.9675595 C147.887937,48.0413694 147.79868,48.0721231 147.706344,48.0598214 C147.614007,48.0475198 147.55245,47.9890878 147.521672,47.8845238 C147.398556,47.4724186 147.244664,47.0418673 147.059992,46.5928571 C146.875319,46.143847 146.656792,45.6948435 146.404406,45.2458333 Z" id="放心职位,只为你" fill="#FFFFFF"></path>
                <g id="Group-5">
                    <path d="M7.44645248,0 L27.7008032,0 C31.8133654,-7.54859097e-16 35.1472557,3.33121466 35.1472557,7.44047619 L35.1472557,27.6785714 C35.1472557,31.787833 31.8133654,35.1190476 27.7008032,35.1190476 L7.44645248,35.1190476 C3.33389033,35.1190476 5.03643606e-16,31.787833 0,27.6785714 L0,7.44047619 C-5.03643606e-16,3.33121466 3.33389033,7.54859097e-16 7.44645248,0 Z" id="Rectangle-3" fill="#FFFFFF"></path>
                    <g id="Group-3" transform="translate(3.467919, 4.807965)">
                        <ellipse id="Oval-3" fill="url(#linearGradient-1)" cx="20.3092356" cy="5.08971705" rx="5.09380517" ry="5.08971705"></ellipse>
                        <path d="M21.9008286,7.45755675 C21.8791771,7.47076979 21.857303,7.48375205 21.8352078,7.49649851 C20.3842866,8.33351595 18.5290008,7.83679261 17.6913111,6.38703588 C17.6785544,6.36495836 17.6661072,6.34278714 17.6539683,6.32052723 C17.6487533,6.31274911 17.6437622,6.30474483 17.6390086,6.29651806 C17.5234652,6.09655162 17.5920338,5.84085551 17.7921609,5.72540483 C17.9922879,5.60995415 18.2481894,5.67846772 18.3637328,5.87843416 L18.3658517,5.87721178 C18.3817765,5.90801971 18.3985021,5.93860806 18.4160353,5.96895198 C19.0226382,7.01877582 20.366121,7.37847203 21.416788,6.77235595 C21.4471563,6.75483689 21.4769476,6.7367027 21.5061552,6.71797824 L21.5073786,6.72009547 C21.7075056,6.60464479 21.9634071,6.67315835 22.0789505,6.8731248 C22.1944939,7.07309124 22.1259253,7.32878734 21.9257983,7.44423802 C21.9175649,7.44898775 21.9092371,7.45342611 21.9008286,7.45755675 Z" id="Combined-Shape" fill="#FFFFFF"></path>
                        <g id="Group" transform="translate(11.391520, 14.997555) rotate(30.000000) translate(-11.391520, -14.997555) translate(3.200422, 6.813031)">
                            <path d="M1.1914324,7.93016446e-16 L12.8165318,0 C13.4745418,1.04714492e-15 14.0079642,0.532994345 14.0079642,1.19047619 L14.0079642,5.79326833 C14.0079642,6.34089695 13.6340691,6.81788332 13.1019606,6.94907745 L1.47686112,9.81530629 C0.838012656,9.97281771 0.192332851,9.58303257 0.0346949171,8.94469682 C0.0116497849,8.85137835 1.38137368e-15,8.75561462 1.45503125e-15,8.65949717 L0,1.19047619 C-8.0582977e-17,0.532994345 0.533422453,7.81624494e-16 1.1914324,7.93016446e-16 Z" id="Combined-Shape" fill="url(#linearGradient-2)"></path>
                            <path d="M15.1815128,16.1587517 L3.55641337,16.1587517 C2.89840343,16.1587517 2.36498097,15.6257573 2.36498097,14.9682755 L2.36498097,10.3654833 C2.36498097,9.8178547 2.7388761,9.34086834 3.27098464,9.20967421 L14.8960841,6.34344537 C15.5349325,6.18593395 16.1806123,6.57571908 16.3382503,7.21405483 C16.3612954,7.30737331 16.3729452,7.40313704 16.3729452,7.49925449 L16.3729452,14.9682755 C16.3729452,15.6257573 15.8395227,16.1587517 15.1815128,16.1587517 Z" id="Combined-Shape-Copy-3" fill="url(#linearGradient-1)"></path>
                        </g>
                    </g>
                </g>
            </g>
        </g>
    </g>
</svg>